<?xml version="1.0" encoding="UTF-8" standalone="no"?>
<!-- Created with Inkscape (http://www.inkscape.org/) -->

<svg
   version="1.1"
   id="svg45473"
   width="1066.6667"
   height="1066.6667"
   viewBox="0 0 1066.6667 1066.6667"
   sodipodi:docname="drink-water-vector-pdv.svg"
   inkscape:version="1.2 (dc2aedaf03, 2022-05-15)"
   xmlns:inkscape="http://www.inkscape.org/namespaces/inkscape"
   xmlns:sodipodi="http://sodipodi.sourceforge.net/DTD/sodipodi-0.dtd"
   xmlns="http://www.w3.org/2000/svg"
   xmlns:svg="http://www.w3.org/2000/svg">
  <defs
     id="defs45477">
    <clipPath
       clipPathUnits="userSpaceOnUse"
       id="clipPath45497">
      <path
         d="M 283.271,721.015 H 516.492 V 72.3828 H 283.271 Z"
         id="path45495" />
    </clipPath>
    <clipPath
       clipPathUnits="userSpaceOnUse"
       id="clipPath45599">
      <path
         d="m 342.726,657.538 h 107.301 v -5.606 H 342.726 Z"
         id="path45597" />
    </clipPath>
    <clipPath
       clipPathUnits="userSpaceOnUse"
       id="clipPath45615">
      <path
         d="M 279.766,724.52 H 396.405 V 75.8887 H 279.766 Z"
         id="path45613" />
    </clipPath>
    <clipPath
       clipPathUnits="userSpaceOnUse"
       id="clipPath45827">
      <path
         d="m -424.0078,542.1709 h 799.99997 v -800 H -424.0078 Z"
         id="path45829"
         style="stroke-width:0.999998" />
    </clipPath>
    <clipPath
       clipPathUnits="userSpaceOnUse"
       id="clipPath45831">
      <path
         d="m -402.3828,438.7988 h 799.99997 v -800 H -402.3828 Z"
         id="path45833"
         style="stroke-width:0.999998" />
    </clipPath>
    <clipPath
       clipPathUnits="userSpaceOnUse"
       id="clipPath45835">
      <path
         d="m -387.8623,444.9199 h 799.99997 v -800 H -387.8623 Z"
         id="path45837"
         style="stroke-width:0.999998" />
    </clipPath>
    <clipPath
       clipPathUnits="userSpaceOnUse"
       id="clipPath45839">
      <path
         d="m -290.8198,591.5498 h 799.99997 v -800 H -290.8198 Z"
         id="path45841"
         style="stroke-width:0.999998" />
    </clipPath>
    <clipPath
       clipPathUnits="userSpaceOnUse"
       id="clipPath45843">
      <path
         d="m -286.6641,333.0415 h 799.99997 v -800 H -286.6641 Z"
         id="path45845"
         style="stroke-width:0.999998" />
    </clipPath>
    <clipPath
       clipPathUnits="userSpaceOnUse"
       id="clipPath45847">
      <path
         d="m -352.1641,87.9053 h 799.99997 v -800 H -352.1641 Z"
         id="path45849"
         style="stroke-width:0.999998" />
    </clipPath>
    <clipPath
       clipPathUnits="userSpaceOnUse"
       id="clipPath45851">
      <path
         d="m -352.4404,115.1514 h 799.99997 v -800 H -352.4404 Z"
         id="path45853"
         style="stroke-width:0.999998" />
    </clipPath>
    <clipPath
       clipPathUnits="userSpaceOnUse"
       id="clipPath45855">
      <path
         d="m -365.2974,87.9053 h 799.99997 v -800 H -365.2974 Z"
         id="path45857"
         style="stroke-width:0.999998" />
    </clipPath>
    <clipPath
       clipPathUnits="userSpaceOnUse"
       id="clipPath45859">
      <path
         d="m -365.5732,115.1514 h 799.99997 v -800 H -365.5732 Z"
         id="path45861"
         style="stroke-width:0.999998" />
    </clipPath>
    <clipPath
       clipPathUnits="userSpaceOnUse"
       id="clipPath45863">
      <path
         d="m -378.4307,87.9053 h 799.99997 v -800 H -378.4307 Z"
         id="path45865"
         style="stroke-width:0.999998" />
    </clipPath>
    <clipPath
       clipPathUnits="userSpaceOnUse"
       id="clipPath45867">
      <path
         d="m -378.7065,115.1514 h 799.99997 v -800 H -378.7065 Z"
         id="path45869"
         style="stroke-width:0.999998" />
    </clipPath>
    <clipPath
       clipPathUnits="userSpaceOnUse"
       id="clipPath45871">
      <path
         d="m -391.5635,87.9053 h 799.99997 v -800 H -391.5635 Z"
         id="path45873"
         style="stroke-width:0.999998" />
    </clipPath>
    <clipPath
       clipPathUnits="userSpaceOnUse"
       id="clipPath45875">
      <path
         d="m -391.8398,115.1514 h 799.99997 v -800 H -391.8398 Z"
         id="path45877"
         style="stroke-width:0.999998" />
    </clipPath>
    <clipPath
       clipPathUnits="userSpaceOnUse"
       id="clipPath45879">
      <path
         d="m -404.6973,87.9053 h 799.99997 v -800 H -404.6973 Z"
         id="path45881"
         style="stroke-width:0.999998" />
    </clipPath>
    <clipPath
       clipPathUnits="userSpaceOnUse"
       id="clipPath45883">
      <path
         d="m -404.9727,115.1514 h 799.99997 v -800 H -404.9727 Z"
         id="path45885"
         style="stroke-width:0.999998" />
    </clipPath>
    <clipPath
       clipPathUnits="userSpaceOnUse"
       id="clipPath45887">
      <path
         d="m -417.8301,87.9053 h 799.99997 v -800 H -417.8301 Z"
         id="path45889"
         style="stroke-width:0.999998" />
    </clipPath>
    <clipPath
       clipPathUnits="userSpaceOnUse"
       id="clipPath45891">
      <path
         d="m -418.1064,115.1514 h 799.99997 v -800 H -418.1064 Z"
         id="path45893"
         style="stroke-width:0.999998" />
    </clipPath>
    <clipPath
       clipPathUnits="userSpaceOnUse"
       id="clipPath45895">
      <path
         d="m -430.9629,87.9053 h 799.99997 v -800 H -430.9629 Z"
         id="path45897"
         style="stroke-width:0.999998" />
    </clipPath>
    <clipPath
       clipPathUnits="userSpaceOnUse"
       id="clipPath45899">
      <path
         d="m -431.2393,115.1514 h 799.99997 v -800 H -431.2393 Z"
         id="path45901"
         style="stroke-width:0.999998" />
    </clipPath>
    <clipPath
       clipPathUnits="userSpaceOnUse"
       id="clipPath45903">
      <path
         d="m -444.0967,87.9053 h 799.99997 v -800 H -444.0967 Z"
         id="path45905"
         style="stroke-width:0.999998" />
    </clipPath>
    <clipPath
       clipPathUnits="userSpaceOnUse"
       id="clipPath45907">
      <path
         d="m -444.373,115.1514 h 799.99997 v -800 H -444.373 Z"
         id="path45909"
         style="stroke-width:0.999998" />
    </clipPath>
    <clipPath
       clipPathUnits="userSpaceOnUse"
       id="clipPath45911">
      <path
         d="m -447.3857,123.1616 h 799.99997 v -800 H -447.3857 Z"
         id="path45913"
         style="stroke-width:0.999998" />
    </clipPath>
    <clipPath
       clipPathUnits="userSpaceOnUse"
       id="clipPath45915">
      <path
         d="m -280.5669,279.4849 h 799.99997 v -800 H -280.5669 Z"
         id="path45917"
         style="stroke-width:0.999998" />
    </clipPath>
    <clipPath
       clipPathUnits="userSpaceOnUse"
       id="clipPath45919">
      <path
         d="m -496.4141,585.251 h 799.99997 v -800 H -496.4141 Z"
         id="path45921"
         style="stroke-width:0.999998" />
    </clipPath>
  </defs>
  <sodipodi:namedview
     id="namedview45475"
     pagecolor="#ffffff"
     bordercolor="#000000"
     borderopacity="0.25"
     inkscape:showpageshadow="2"
     inkscape:pageopacity="0.0"
     inkscape:pagecheckerboard="0"
     inkscape:deskcolor="#d1d1d1"
     showgrid="false"
     inkscape:zoom="0.7846874"
     inkscape:cx="533.3334"
     inkscape:cy="533.97059"
     inkscape:window-width="1920"
     inkscape:window-height="1017"
     inkscape:window-x="-8"
     inkscape:window-y="-8"
     inkscape:window-maximized="1"
     inkscape:current-layer="g45481">
    <inkscape:page
       x="0"
       y="0"
       id="page45479"
       width="1066.6667"
       height="1066.6667" />
  </sodipodi:namedview>
  <g
     id="g45481"
     inkscape:groupmode="layer"
     inkscape:label="Page 1"
     transform="matrix(1.3333333,0,0,-1.3333333,0,1066.6667)">
    <g
       id="g45491">
      <g
         id="g45493" />
      <g
         id="g45505">
        <g
           clip-path="url(#clipPath45497)"
           id="g45503">
          <g
             transform="translate(348.332,673.9302)"
             id="g45501">
            <path
               d="M 0,0 C 0,0.33 0.268,0.597 0.597,0.597 H 8.594 C 8.924,0.597 9.191,0.33 9.191,0 9.191,-0.33 8.924,-0.597 8.594,-0.597 H 0.597 C 0.268,-0.597 0,-0.33 0,0 m 11.038,0.597 h 7.997 c 0.33,0 0.597,-0.267 0.597,-0.597 0,-0.33 -0.267,-0.597 -0.597,-0.597 h -7.997 c -0.33,0 -0.598,0.267 -0.598,0.597 0,0.33 0.268,0.597 0.598,0.597 m 10.44,0 h 7.998 c 0.329,0 0.597,-0.267 0.597,-0.597 0,-0.33 -0.268,-0.597 -0.597,-0.597 h -7.998 c -0.33,0 -0.597,0.267 -0.597,0.597 0,0.33 0.267,0.597 0.597,0.597 m 10.441,0 h 7.997 c 0.33,0 0.597,-0.267 0.597,-0.597 0,-0.33 -0.267,-0.597 -0.597,-0.597 h -7.997 c -0.33,0 -0.597,0.267 -0.597,0.597 0,0.33 0.267,0.597 0.597,0.597 m 10.44,0 h 7.998 c 0.329,0 0.597,-0.267 0.597,-0.597 0,-0.33 -0.268,-0.597 -0.597,-0.597 h -7.998 c -0.33,0 -0.597,0.267 -0.597,0.597 0,0.33 0.267,0.597 0.597,0.597 m 10.441,0 h 7.997 c 0.33,0 0.598,-0.267 0.598,-0.597 0,-0.33 -0.268,-0.597 -0.598,-0.597 H 52.8 c -0.33,0 -0.597,0.267 -0.597,0.597 0,0.33 0.267,0.597 0.597,0.597 m 10.44,0 h 7.997 c 0.33,0 0.598,-0.267 0.598,-0.597 0,-0.33 -0.268,-0.597 -0.598,-0.597 H 63.24 c -0.33,0 -0.596,0.267 -0.596,0.597 0,0.33 0.266,0.597 0.596,0.597 m 10.441,0 h 7.997 c 0.33,0 0.597,-0.267 0.597,-0.597 0,-0.33 -0.267,-0.597 -0.597,-0.597 h -7.997 c -0.33,0 -0.597,0.267 -0.597,0.597 0,0.33 0.267,0.597 0.597,0.597 m 10.44,0 h 7.997 c 0.33,0 0.598,-0.267 0.598,-0.597 0,-0.33 -0.268,-0.597 -0.598,-0.597 h -7.997 c -0.33,0 -0.597,0.267 -0.597,0.597 0,0.33 0.267,0.597 0.597,0.597 m 10.441,0 h 7.997 c 0.33,0 0.597,-0.267 0.597,-0.597 0,-0.33 -0.267,-0.597 -0.597,-0.597 h -7.997 c -0.33,0 -0.597,0.267 -0.597,0.597 0,0.33 0.267,0.597 0.597,0.597 m 66.1,-472.311 c -0.598,1.482 -1.955,2.531 -3.542,2.732 -3.072,0.388 -5.532,3.026 -5.532,6.295 0,2.529 1.48,4.709 3.622,5.727 1.539,0.731 2.52,2.285 2.52,3.989 v 177.845 c 0,15.268 -0.297,34.707 2.509,49.682 0.286,1.526 -0.252,3.097 -1.415,4.124 -1.313,1.161 -2.142,2.856 -2.142,4.747 0,2.892 1.937,5.334 4.58,6.096 1.605,0.463 2.812,1.796 3.117,3.439 2.965,15.989 4.95,36.976 3.009,50.118 -2.511,16.997 -12.555,45.196 -28.201,72.044 -15.644,26.848 -38.851,42.845 -38.851,44.098 v 17.347 c 0,1.976 2.923,3.534 4.864,3.534 1.942,0 3,1.294 3,2.176 v 3 c 0,1.118 -2.235,2.023 -3.117,2.023 h -2.434 v 1.611 h 1.202 V -0.08 36.417 c 0,6.737 -1.685,10.667 -5.053,10.667 H 51.635 51.521 4.359 c -3.369,0 -5.053,-3.93 -5.053,-10.667 V -0.08 -11.087 H 0.45 v -1.611 h -2.433 c -0.883,0 -3.119,-0.905 -3.119,-2.023 v -3 c 0,-0.882 1.06,-2.176 3.001,-2.176 1.941,0 4.864,-1.558 4.864,-3.534 v -17.347 c 0,-1.253 -23.207,-17.25 -38.852,-44.098 -15.645,-26.848 -25.688,-55.047 -28.199,-72.044 -1.941,-13.142 0.043,-34.129 3.008,-50.118 0.304,-1.642 1.513,-2.976 3.117,-3.439 2.641,-0.761 4.581,-3.201 4.581,-6.096 0,-1.891 -0.829,-3.586 -2.143,-4.747 -1.165,-1.029 -1.702,-2.596 -1.416,-4.124 2.808,-14.975 2.51,-34.414 2.51,-49.682 v -177.826 c 0,-1.71 0.989,-3.269 2.536,-3.997 2.155,-1.012 3.646,-3.199 3.646,-5.738 0,-3.284 -2.48,-5.921 -5.558,-6.298 -1.595,-0.196 -2.957,-1.244 -3.558,-2.734 -3.084,-7.655 -7.496,-15.922 -7.496,-23.21 v -73.01 c 0,-5.795 5.408,-33.608 36.698,-33.608 h 79.884 0.057 79.884 c 31.29,0 36.698,27.813 36.698,33.608 v 73.01 c 0,7.289 -4.414,15.558 -7.498,23.215"
               style="fill:#d1d3d4;fill-opacity:1;fill-rule:nonzero;stroke:none"
               id="path45499" />
          </g>
        </g>
      </g>
    </g>
    <g
       id="g45507"
       transform="translate(496.4141,214.749)"
       clip-path="url(#clipPath45919)">
      <path
         d="m 0,0 c 0,2.529 1.48,4.709 3.622,5.727 1.539,0.731 2.52,2.285 2.52,3.989 V 187.56 c 0,15.268 -0.296,34.708 2.51,49.683 0.286,1.525 -0.253,3.096 -1.416,4.124 -1.313,1.16 -2.142,2.855 -2.142,4.746 0,2.893 1.938,5.335 4.58,6.097 1.606,0.463 2.813,1.795 3.118,3.439 2.964,15.988 4.949,36.976 3.008,50.117 -2.511,16.997 -12.555,45.197 -28.2,72.045 -15.645,26.847 -38.852,42.844 -38.852,44.097 v 17.348 c 0,1.976 2.924,3.533 4.864,3.533 1.942,0 3.001,1.294 3.001,2.176 v 3.001 c 0,1.118 -2.235,2.022 -3.118,2.022 h -2.434 v 6.844 h -51.07 -0.057 -51.072 v -6.844 h -2.433 c -0.882,0 -3.118,-0.904 -3.118,-2.022 v -3.001 c 0,-0.882 1.059,-2.176 3,-2.176 1.942,0 4.865,-1.557 4.865,-3.533 v -17.348 c 0,-1.253 -23.207,-17.25 -38.852,-44.097 -15.645,-26.848 -25.689,-55.048 -28.2,-72.045 -1.941,-13.141 0.044,-34.129 3.008,-50.118 0.305,-1.642 1.514,-2.976 3.118,-3.438 2.641,-0.762 4.58,-3.201 4.58,-6.097 0,-1.891 -0.829,-3.586 -2.142,-4.746 -1.166,-1.029 -1.702,-2.596 -1.416,-4.125 2.807,-14.974 2.51,-34.414 2.51,-49.682 V 9.734 c 0,-1.709 0.989,-3.268 2.536,-3.996 2.154,-1.012 3.645,-3.2 3.645,-5.738 0,-3.284 -2.479,-5.921 -5.557,-6.299 -1.595,-0.195 -2.958,-1.244 -3.558,-2.734 -3.085,-7.654 -7.496,-15.922 -7.496,-23.21 v -73.01 c 0,-5.794 5.408,-33.607 36.698,-33.607 h 79.884 0.057 79.883 c 31.29,0 36.698,27.813 36.698,33.607 v 73.01 c 0,7.29 -4.413,15.559 -7.497,23.215 C 8.478,-7.545 7.119,-6.496 5.533,-6.296 2.461,-5.907 0,-3.268 0,0"
         style="fill:#cee2ea;fill-opacity:1;fill-rule:nonzero;stroke:none"
         id="path45509" />
    </g>
    <g
       id="g45511"
       transform="translate(280.5669,520.5151)"
       clip-path="url(#clipPath45915)">
      <path
         d="m 0,0 c -1.941,-13.142 0.044,-34.129 3.008,-50.118 0.305,-1.642 1.513,-2.976 3.118,-3.439 2.64,-0.761 4.58,-3.2 4.58,-6.096 0,-1.891 -0.829,-3.586 -2.142,-4.746 -1.166,-1.029 -1.703,-2.597 -1.416,-4.124 2.807,-14.975 2.509,-34.415 2.509,-49.683 v -177.826 c 0,-1.709 0.99,-3.268 2.537,-3.996 2.154,-1.012 3.645,-3.2 3.645,-5.738 0,-3.284 -2.479,-5.921 -5.558,-6.299 -1.595,-0.195 -2.957,-1.244 -3.558,-2.734 -3.084,-7.655 -7.495,-15.922 -7.495,-23.21 v -73.01 c 0,-5.794 5.407,-33.607 36.697,-33.607 h 79.884 0.057 79.884 c 31.29,0 36.698,27.813 36.698,33.607 v 73.01 c 0,7.29 -4.413,15.559 -7.497,23.215 -0.598,1.483 -1.956,2.532 -3.542,2.732 -3.073,0.389 -5.534,3.027 -5.534,6.296 0,2.529 1.482,4.709 3.623,5.727 1.54,0.731 2.52,2.285 2.52,3.989 v 177.844 c 0,15.268 -0.297,34.708 2.51,49.683 0.286,1.526 -0.252,3.096 -1.416,4.124 -1.314,1.16 -2.143,2.855 -2.143,4.746 0,2.893 1.939,5.335 4.58,6.097 1.607,0.463 2.814,1.795 3.118,3.439 2.964,15.988 4.95,36.975 3.008,50.117 -2.499,16.917 -12.461,44.928 -27.977,71.66 H 27.978 C 12.461,44.928 2.499,16.917 0,0"
         style="fill:#7dcced;fill-opacity:1;fill-rule:nonzero;stroke:none"
         id="path45513" />
    </g>
    <g
       id="g45515"
       transform="translate(447.3857,676.8384)"
       clip-path="url(#clipPath45911)">
      <path
         d="m 0,0 h -7.997 c -0.33,0 -0.598,0.268 -0.598,0.597 0,0.33 0.268,0.597 0.598,0.597 H 0 C 0.33,1.194 0.597,0.927 0.597,0.597 0.597,0.268 0.33,0 0,0 m -10.44,0 h -7.997 c -0.33,0 -0.598,0.268 -0.598,0.597 0,0.33 0.268,0.597 0.598,0.597 h 7.997 c 0.33,0 0.596,-0.267 0.596,-0.597 C -9.844,0.268 -10.11,0 -10.44,0 m -10.441,0 h -7.997 c -0.33,0 -0.597,0.268 -0.597,0.597 0,0.33 0.267,0.597 0.597,0.597 h 7.997 c 0.33,0 0.597,-0.267 0.597,-0.597 C -20.284,0.268 -20.551,0 -20.881,0 m -10.44,0 h -7.998 c -0.329,0 -0.597,0.268 -0.597,0.597 0,0.33 0.268,0.597 0.597,0.597 h 7.998 c 0.329,0 0.596,-0.267 0.596,-0.597 C -30.725,0.268 -30.992,0 -31.321,0 m -10.441,0 h -7.997 c -0.33,0 -0.597,0.268 -0.597,0.597 0,0.33 0.267,0.597 0.597,0.597 h 7.997 c 0.329,0 0.597,-0.267 0.597,-0.597 C -41.165,0.268 -41.433,0 -41.762,0 M -52.203,0 H -60.2 c -0.33,0 -0.597,0.268 -0.597,0.597 0,0.33 0.267,0.597 0.597,0.597 h 7.997 c 0.33,0 0.598,-0.267 0.598,-0.597 C -51.605,0.268 -51.873,0 -52.203,0 m -10.44,0 h -7.997 c -0.33,0 -0.598,0.268 -0.598,0.597 0,0.33 0.268,0.597 0.598,0.597 h 7.997 c 0.33,0 0.597,-0.267 0.597,-0.597 C -62.046,0.268 -62.313,0 -62.643,0 m -10.441,0 h -7.997 c -0.33,0 -0.597,0.268 -0.597,0.597 0,0.33 0.267,0.597 0.597,0.597 h 7.997 c 0.33,0 0.598,-0.267 0.598,-0.597 C -72.486,0.268 -72.754,0 -73.084,0 m -10.44,0 h -7.997 c -0.33,0 -0.598,0.268 -0.598,0.597 0,0.33 0.268,0.597 0.598,0.597 h 7.997 c 0.33,0 0.597,-0.267 0.597,-0.597 C -82.927,0.268 -83.194,0 -83.524,0 m -10.441,0 h -7.997 c -0.329,0 -0.597,0.268 -0.597,0.597 0,0.33 0.268,0.597 0.597,0.597 h 7.997 c 0.33,0 0.597,-0.267 0.597,-0.597 C -93.368,0.268 -93.635,0 -93.965,0 M -3.762,47.682 H -50.924 -51.038 -98.2 c -3.369,0 -5.054,-3.931 -5.054,-10.668 V 0.518 -10.49 h 52.216 0.114 52.216 V 0.518 37.014 c 0,6.737 -1.684,10.668 -5.054,10.668"
         style="fill:#39b54a;fill-opacity:1;fill-rule:nonzero;stroke:none"
         id="path45517" />
    </g>
    <g
       id="g45519"
       transform="translate(444.373,684.8486)"
       clip-path="url(#clipPath45907)">
      <path
         d="m 0,0 c 0,-1.083 -0.878,-1.961 -1.961,-1.961 -1.083,0 -1.961,0.878 -1.961,1.961 v 26.258 c 0,1.083 0.878,1.961 1.961,1.961 1.083,0 1.961,-0.878 1.961,-1.961 z"
         style="fill:#009444;fill-opacity:1;fill-rule:nonzero;stroke:none"
         id="path45521" />
    </g>
    <g
       id="g45523"
       transform="translate(444.0967,712.0947)"
       clip-path="url(#clipPath45903)">
      <path
         d="m 0,0 c 0.171,-0.291 0.276,-0.626 0.276,-0.988 v -26.258 c 0,-1.083 -0.878,-1.961 -1.961,-1.961 -0.362,0 -0.697,0.105 -0.988,0.276 0.341,-0.58 0.964,-0.973 1.685,-0.973 1.083,0 1.961,0.878 1.961,1.961 V -1.685 C 0.973,-0.964 0.579,-0.34 0,0"
         style="fill:#006f33;fill-opacity:1;fill-rule:nonzero;stroke:none"
         id="path45525" />
    </g>
    <g
       id="g45527"
       transform="translate(431.2393,684.8486)"
       clip-path="url(#clipPath45899)">
      <path
         d="m 0,0 c 0,-1.083 -0.878,-1.961 -1.961,-1.961 -1.083,0 -1.961,0.878 -1.961,1.961 v 26.258 c 0,1.083 0.878,1.961 1.961,1.961 1.083,0 1.961,-0.878 1.961,-1.961 z"
         style="fill:#009444;fill-opacity:1;fill-rule:nonzero;stroke:none"
         id="path45529" />
    </g>
    <g
       id="g45531"
       transform="translate(430.9629,712.0947)"
       clip-path="url(#clipPath45895)">
      <path
         d="m 0,0 c 0.172,-0.291 0.276,-0.626 0.276,-0.988 v -26.258 c 0,-1.083 -0.878,-1.961 -1.961,-1.961 -0.361,0 -0.696,0.105 -0.987,0.276 0.34,-0.58 0.963,-0.973 1.685,-0.973 1.083,0 1.96,0.878 1.96,1.961 V -1.685 C 0.973,-0.964 0.58,-0.34 0,0"
         style="fill:#006f33;fill-opacity:1;fill-rule:nonzero;stroke:none"
         id="path45533" />
    </g>
    <g
       id="g45535"
       transform="translate(418.1064,684.8486)"
       clip-path="url(#clipPath45891)">
      <path
         d="m 0,0 c 0,-1.083 -0.878,-1.961 -1.961,-1.961 -1.083,0 -1.961,0.878 -1.961,1.961 v 26.258 c 0,1.083 0.878,1.961 1.961,1.961 1.083,0 1.961,-0.878 1.961,-1.961 z"
         style="fill:#009444;fill-opacity:1;fill-rule:nonzero;stroke:none"
         id="path45537" />
    </g>
    <g
       id="g45539"
       transform="translate(417.8301,712.0947)"
       clip-path="url(#clipPath45887)">
      <path
         d="m 0,0 c 0.171,-0.291 0.276,-0.626 0.276,-0.988 v -26.258 c 0,-1.083 -0.878,-1.961 -1.961,-1.961 -0.362,0 -0.697,0.105 -0.988,0.276 0.341,-0.58 0.964,-0.973 1.685,-0.973 1.083,0 1.961,0.878 1.961,1.961 V -1.685 C 0.973,-0.964 0.58,-0.34 0,0"
         style="fill:#006f33;fill-opacity:1;fill-rule:nonzero;stroke:none"
         id="path45541" />
    </g>
    <g
       id="g45543"
       transform="translate(404.9727,684.8486)"
       clip-path="url(#clipPath45883)">
      <path
         d="m 0,0 c 0,-1.083 -0.878,-1.961 -1.961,-1.961 -1.082,0 -1.96,0.878 -1.96,1.961 v 26.258 c 0,1.083 0.878,1.961 1.96,1.961 1.083,0 1.961,-0.878 1.961,-1.961 z"
         style="fill:#009444;fill-opacity:1;fill-rule:nonzero;stroke:none"
         id="path45545" />
    </g>
    <g
       id="g45547"
       transform="translate(404.6973,712.0947)"
       clip-path="url(#clipPath45879)">
      <path
         d="m 0,0 c 0.171,-0.291 0.275,-0.626 0.275,-0.988 v -26.258 c 0,-1.083 -0.878,-1.961 -1.961,-1.961 -0.361,0 -0.696,0.105 -0.987,0.276 0.341,-0.58 0.964,-0.973 1.685,-0.973 1.083,0 1.961,0.878 1.961,1.961 V -1.685 C 0.973,-0.964 0.579,-0.34 0,0"
         style="fill:#006f33;fill-opacity:1;fill-rule:nonzero;stroke:none"
         id="path45549" />
    </g>
    <g
       id="g45551"
       transform="translate(391.8398,684.8486)"
       clip-path="url(#clipPath45875)">
      <path
         d="m 0,0 c 0,-1.083 -0.878,-1.961 -1.961,-1.961 -1.083,0 -1.961,0.878 -1.961,1.961 v 26.258 c 0,1.083 0.878,1.961 1.961,1.961 1.083,0 1.961,-0.878 1.961,-1.961 z"
         style="fill:#009444;fill-opacity:1;fill-rule:nonzero;stroke:none"
         id="path45553" />
    </g>
    <g
       id="g45555"
       transform="translate(391.5635,712.0947)"
       clip-path="url(#clipPath45871)">
      <path
         d="m 0,0 c 0.171,-0.291 0.276,-0.626 0.276,-0.988 v -26.258 c 0,-1.083 -0.878,-1.961 -1.961,-1.961 -0.361,0 -0.696,0.105 -0.987,0.276 0.34,-0.58 0.964,-0.973 1.684,-0.973 1.083,0 1.961,0.878 1.961,1.961 V -1.685 C 0.973,-0.964 0.58,-0.34 0,0"
         style="fill:#006f33;fill-opacity:1;fill-rule:nonzero;stroke:none"
         id="path45557" />
    </g>
    <g
       id="g45559"
       transform="translate(378.7065,684.8486)"
       clip-path="url(#clipPath45867)">
      <path
         d="m 0,0 c 0,-1.083 -0.878,-1.961 -1.961,-1.961 -1.083,0 -1.961,0.878 -1.961,1.961 v 26.258 c 0,1.083 0.878,1.961 1.961,1.961 1.083,0 1.961,-0.878 1.961,-1.961 z"
         style="fill:#009444;fill-opacity:1;fill-rule:nonzero;stroke:none"
         id="path45561" />
    </g>
    <g
       id="g45563"
       transform="translate(378.4307,712.0947)"
       clip-path="url(#clipPath45863)">
      <path
         d="m 0,0 c 0.171,-0.291 0.276,-0.626 0.276,-0.988 v -26.258 c 0,-1.083 -0.878,-1.961 -1.961,-1.961 -0.362,0 -0.697,0.105 -0.988,0.276 0.341,-0.58 0.964,-0.973 1.685,-0.973 1.083,0 1.961,0.878 1.961,1.961 V -1.685 C 0.973,-0.964 0.579,-0.34 0,0"
         style="fill:#006f33;fill-opacity:1;fill-rule:nonzero;stroke:none"
         id="path45565" />
    </g>
    <g
       id="g45567"
       transform="translate(365.5732,684.8486)"
       clip-path="url(#clipPath45859)">
      <path
         d="m 0,0 c 0,-1.083 -0.878,-1.961 -1.96,-1.961 -1.083,0 -1.961,0.878 -1.961,1.961 v 26.258 c 0,1.083 0.878,1.961 1.961,1.961 1.082,0 1.96,-0.878 1.96,-1.961 z"
         style="fill:#009444;fill-opacity:1;fill-rule:nonzero;stroke:none"
         id="path45569" />
    </g>
    <g
       id="g45571"
       transform="translate(365.2974,712.0947)"
       clip-path="url(#clipPath45855)">
      <path
         d="m 0,0 c 0.171,-0.291 0.276,-0.626 0.276,-0.988 v -26.258 c 0,-1.083 -0.878,-1.961 -1.961,-1.961 -0.362,0 -0.697,0.105 -0.988,0.276 0.341,-0.58 0.964,-0.973 1.685,-0.973 1.083,0 1.961,0.878 1.961,1.961 V -1.685 C 0.973,-0.964 0.58,-0.34 0,0"
         style="fill:#006f33;fill-opacity:1;fill-rule:nonzero;stroke:none"
         id="path45573" />
    </g>
    <g
       id="g45575"
       transform="translate(352.4404,684.8486)"
       clip-path="url(#clipPath45851)">
      <path
         d="m 0,0 c 0,-1.083 -0.878,-1.961 -1.961,-1.961 -1.083,0 -1.961,0.878 -1.961,1.961 v 26.258 c 0,1.083 0.878,1.961 1.961,1.961 1.083,0 1.961,-0.878 1.961,-1.961 z"
         style="fill:#009444;fill-opacity:1;fill-rule:nonzero;stroke:none"
         id="path45577" />
    </g>
    <g
       id="g45579"
       transform="translate(352.1641,712.0947)"
       clip-path="url(#clipPath45847)">
      <path
         d="m 0,0 c 0.171,-0.291 0.276,-0.626 0.276,-0.988 v -26.258 c 0,-1.083 -0.878,-1.961 -1.961,-1.961 -0.362,0 -0.697,0.105 -0.988,0.276 0.341,-0.58 0.964,-0.973 1.685,-0.973 1.083,0 1.961,0.878 1.961,1.961 V -1.685 C 0.973,-0.964 0.58,-0.34 0,0"
         style="fill:#006f33;fill-opacity:1;fill-rule:nonzero;stroke:none"
         id="path45581" />
    </g>
    <g
       id="g45583"
       transform="translate(286.6641,466.9585)"
       clip-path="url(#clipPath45843)">
      <path
         d="m 0,0 c 2.64,-0.761 4.58,-3.201 4.58,-6.096 0,-1.891 -0.829,-3.586 -2.142,-4.746 -0.697,-0.615 -1.163,-1.425 -1.369,-2.302 h 217.285 c -0.206,0.877 -0.672,1.688 -1.368,2.302 -1.313,1.16 -2.142,2.855 -2.142,4.746 0,2.892 1.937,5.334 4.58,6.097 1.123,0.323 2.042,1.077 2.602,2.059 H -2.602 C -2.041,1.078 -1.122,0.324 0,0"
         style="fill:#52bbe7;fill-opacity:1;fill-rule:nonzero;stroke:none"
         id="path45585" />
    </g>
    <g
       id="g45587"
       transform="translate(290.8198,208.4502)"
       clip-path="url(#clipPath45839)">
      <path
         d="m 0,0 c -0.84,-0.102 -1.611,-0.447 -2.245,-0.964 h 215.606 c -0.631,0.516 -1.399,0.862 -2.235,0.967 -3.071,0.389 -5.532,3.027 -5.532,6.296 0,2.529 1.481,4.709 3.622,5.726 0.978,0.464 1.727,1.261 2.146,2.215 H -0.241 C 0.182,13.289 0.935,12.496 1.912,12.037 4.066,11.024 5.558,8.837 5.558,6.299 5.558,3.015 3.078,0.378 0,0"
         style="fill:#52bbe7;fill-opacity:1;fill-rule:nonzero;stroke:none"
         id="path45589" />
    </g>
    <path
       d="M 483.288,235.29 H 309.464 v 198.16 h 173.824 z"
       style="fill:#ffffff;fill-opacity:1;fill-rule:nonzero;stroke:none"
       id="path45591" />
    <g
       id="g45593">
      <g
         id="g45595" />
      <g
         id="g45607">
        <g
           clip-path="url(#clipPath45599)"
           id="g45605">
          <g
             transform="translate(445.1631,651.9321)"
             id="g45603">
            <path
               d="m 0,0 v 2.073 c 0,1.975 2.923,3.533 4.864,3.533 h -107.302 c 1.942,0 4.865,-1.558 4.865,-3.533 V 0 Z"
               style="fill:#e6e7e8;fill-opacity:1;fill-rule:nonzero;stroke:none"
               id="path45601" />
          </g>
        </g>
      </g>
    </g>
    <g
       id="g45625"
       transform="translate(387.8623,355.0801)"
       clip-path="url(#clipPath45835)">
      <path
         d="M 0,0 C 0.143,-0.074 0.275,-0.153 0.399,-0.237 0.475,-0.288 0.544,-0.34 0.608,-0.393 0.572,-0.294 0.545,-0.256 0.545,-0.256 0.457,-0.18 0.257,-0.077 0,0 m -6.575,-10.876 c -0.358,-0.223 -0.469,-0.691 -0.253,-1.053 0.217,-0.361 0.683,-0.48 1.049,-0.271 l 4.863,2.808 c -0.88,0.058 -1.629,0.176 -2.248,0.366 -0.803,0.246 -1.487,0.6 -2.054,1.044 l -5.107,-3.185 c -0.358,-0.224 -0.471,-0.691 -0.254,-1.053 0.217,-0.362 0.684,-0.481 1.049,-0.272 l 4.8,2.771 z M -13.769,4.395 C -14.118,4.166 -14.222,3.7 -14.002,3.344 -13.783,2.987 -13.32,2.871 -12.958,3.08 l 8.59,4.959 c -10e-4,0.199 0.002,0.403 0.022,0.629 0.082,0.898 0.318,1.684 0.687,2.358 z m 6.85,-9.875 c -0.16,0.565 -0.237,1.171 -0.234,1.808 l -5.707,-3.732 c -0.35,-0.229 -0.455,-0.696 -0.236,-1.051 0.219,-0.357 0.681,-0.474 1.045,-0.265 l 5.215,3.011 c -0.026,0.077 -0.06,0.15 -0.083,0.229 M 37.917,8.477 C 37.698,8.835 37.233,8.953 36.871,8.744 L 22.978,0.723 24.738,-3.48 33.497,2.4 c 0.346,0.233 0.445,0.697 0.225,1.05 -0.22,0.353 -0.68,0.468 -1.042,0.261 l -7.418,-4.283 12.414,7.997 c 0.352,0.227 0.46,0.694 0.241,1.052 M 11.671,-7.891 c -0.6,0.605 -1.123,1.393 -1.566,2.329 l -13.025,-8.67 c -0.349,-0.231 -0.45,-0.696 -0.229,-1.05 0.22,-0.356 0.682,-0.471 1.043,-0.263 l 12.281,7.091 -12.415,-7.997 c -0.352,-0.228 -0.46,-0.695 -0.24,-1.052 0.219,-0.358 0.683,-0.477 1.045,-0.268 l 15.095,8.716 c -0.605,0.145 -1.304,0.472 -1.989,1.164 m -1.717,2.644 c -0.442,1.013 -0.79,2.189 -1.035,3.498 -0.24,1.284 -0.362,2.65 -0.362,4.06 0,1.239 0.171,2.811 0.523,4.808 l 0.511,2.905 0.773,2.899 c 0.265,0.994 0.535,1.895 0.806,2.702 l -3.075,-1.775 3.184,2.08 c 0.228,0.655 0.456,1.256 0.686,1.772 0.334,0.754 0.698,1.473 1.074,2.171 l -3.288,-1.898 3.515,2.306 c 0.146,0.263 0.288,0.536 0.439,0.789 0.641,1.069 1.328,2.02 2.042,2.823 0.477,0.54 0.979,1.003 1.497,1.406 l -7.777,-4.49 10.619,6.839 c 0.352,0.227 0.459,0.695 0.24,1.052 -0.219,0.359 -0.681,0.476 -1.045,0.267 l -8.703,-5.025 9.418,6.079 c 0.353,0.227 0.46,0.694 0.241,1.052 -0.218,0.357 -0.682,0.475 -1.046,0.266 L 2.715,21.827 15.057,30.361 c 0.34,0.236 0.435,0.698 0.213,1.049 -0.221,0.35 -0.68,0.463 -1.039,0.256 l -6.634,-3.831 3.847,2.585 c 0.346,0.232 0.445,0.696 0.225,1.051 -0.221,0.352 -0.682,0.468 -1.042,0.259 l -15.133,-8.736 5.378,4.898 c 0.291,0.265 0.335,0.708 0.103,1.026 -0.232,0.318 -0.666,0.411 -1.01,0.214 l -5.123,-2.958 c -0.37,-0.213 -0.497,-0.686 -0.283,-1.056 0.123,-0.213 0.332,-0.346 0.558,-0.378 l -5.953,-5.422 c -0.291,-0.265 -0.335,-0.708 -0.103,-1.026 0.233,-0.319 0.666,-0.412 1.01,-0.214 l 1.649,0.952 -3.845,-2.583 c -0.346,-0.232 -0.445,-0.696 -0.225,-1.051 0.221,-0.351 0.681,-0.466 1.042,-0.259 l 9.886,5.708 -12.343,-8.536 c -0.341,-0.236 -0.435,-0.699 -0.214,-1.049 0.223,-0.351 0.682,-0.463 1.04,-0.256 l 5.895,3.404 -9.423,-6.082 c -0.353,-0.227 -0.46,-0.694 -0.241,-1.052 0.22,-0.357 0.683,-0.477 1.046,-0.266 l 8.209,4.74 -10.622,-6.842 c -0.353,-0.227 -0.46,-0.694 -0.241,-1.052 0.219,-0.358 0.684,-0.477 1.046,-0.267 l 14.036,8.103 c 0.386,0.513 0.843,0.942 1.369,1.274 0.614,0.388 1.297,0.676 2.03,0.857 0.141,0.035 0.286,0.051 0.428,0.079 l 1.079,0.623 -0.899,-0.589 c 0.506,0.088 1.017,0.149 1.531,0.149 0.757,0 1.507,-0.1 2.228,-0.296 C 5.285,13.582 5.963,13.276 6.55,12.877 7.188,12.44 7.7,11.893 8.073,11.246 8.494,10.517 8.656,9.621 8.555,8.583 8.529,8.188 8.443,7.713 8.305,7.217 8.155,6.684 7.921,6.153 7.608,5.641 7.37,5.25 7.033,4.69 6.595,3.963 6.529,3.852 6.46,3.745 6.389,3.643 6.958,3.173 7.422,2.612 7.765,1.977 8.128,1.307 8.357,0.468 8.463,-0.584 8.559,-1.533 8.572,-2.336 8.503,-3.035 8.425,-3.862 8.143,-4.689 7.664,-5.484 7.213,-6.234 6.612,-6.914 5.88,-7.5 5.166,-8.07 4.336,-8.538 3.414,-8.891 2.463,-9.253 1.438,-9.437 0.364,-9.437 c -0.333,0 -0.644,0.01 -0.944,0.024 l -6.189,-3.959 c -0.354,-0.227 -0.462,-0.694 -0.244,-1.053 0.219,-0.359 0.684,-0.477 1.047,-0.267 l 16.016,9.246 c -0.031,0.068 -0.066,0.13 -0.096,0.199 m 25.917,7.849 -11.016,-6.361 0.292,-0.696 -1.064,-0.706 c -1.099,-0.73 -2.199,-1.389 -3.272,-1.956 -0.488,-0.249 -0.969,-0.485 -1.467,-0.718 -0.53,-0.247 -1.062,-0.467 -1.587,-0.656 -0.542,-0.196 -1.084,-0.355 -1.611,-0.475 -0.575,-0.129 -1.126,-0.193 -1.642,-0.193 -0.244,0 -0.531,0.029 -0.842,0.103 L 1.235,-17.398 c -0.345,-0.233 -0.445,-0.697 -0.225,-1.05 0.22,-0.354 0.681,-0.469 1.042,-0.261 l 14.705,8.49 -14.707,-9.866 c -0.346,-0.231 -0.446,-0.696 -0.226,-1.05 0.221,-0.352 0.682,-0.469 1.042,-0.261 l 1.475,0.852 -0.353,-0.226 c -0.354,-0.225 -0.462,-0.693 -0.243,-1.052 0.145,-0.239 0.4,-0.371 0.66,-0.371 0.132,0 0.264,0.033 0.386,0.103 l 13.575,7.838 -6.182,-4.388 c -0.336,-0.238 -0.425,-0.7 -0.203,-1.047 0.223,-0.346 0.679,-0.458 1.037,-0.252 l 2.726,1.575 -2.211,-1.504 c -0.343,-0.235 -0.44,-0.698 -0.22,-1.05 0.222,-0.353 0.682,-0.467 1.041,-0.259 l 17.117,9.882 c 0.37,0.214 0.497,0.687 0.283,1.056 -0.159,0.276 -0.459,0.418 -0.76,0.382 l 2.915,1.982 c 0.343,0.233 0.441,0.698 0.219,1.05 -0.22,0.351 -0.68,0.465 -1.04,0.259 l -6.565,-3.791 6.182,4.387 c 0.337,0.24 0.426,0.7 0.203,1.048 -0.164,0.256 -0.458,0.386 -0.741,0.35 l 1.504,0.962 c 0.354,0.226 0.462,0.694 0.244,1.052 -0.219,0.36 -0.683,0.477 -1.047,0.268 l -10.893,-6.289 14.713,9.87 c 0.346,0.231 0.446,0.696 0.225,1.051 -0.22,0.351 -0.681,0.467 -1.042,0.26 M 20.405,7.327 C 19.775,6.185 19.144,5.062 18.509,3.957 17.888,2.876 17.313,1.817 16.801,0.809 16.773,0.753 16.74,0.664 16.703,0.557 16.648,0.395 16.599,0.228 16.551,0.049 16.495,-0.153 16.441,-0.368 16.388,-0.597 16.349,-0.76 16.316,-0.92 16.29,-1.076 V -1.2 c 0,-0.192 0.019,-0.37 0.059,-0.545 0.005,-0.029 0.012,-0.059 0.019,-0.087 0.105,0.043 0.211,0.092 0.321,0.145 0.287,0.138 0.581,0.298 0.884,0.478 0.324,0.192 0.636,0.387 0.937,0.585 0.705,0.463 1.458,1.007 2.234,1.617 l 1.597,1.254 0.498,-1.189 9.999,6.655 c 0.348,0.231 0.449,0.696 0.229,1.051 -0.219,0.354 -0.681,0.469 -1.043,0.261 L 22.675,3.627 32.342,9.81 c 0.353,0.227 0.462,0.695 0.244,1.053 -0.219,0.359 -0.684,0.477 -1.047,0.268 l -0.644,-0.371 1.847,1.156 c 0.359,0.223 0.47,0.691 0.253,1.053 -0.218,0.361 -0.684,0.482 -1.049,0.271 l -2.814,-1.625 5.475,3.414 c 0.358,0.223 0.471,0.692 0.254,1.053 -0.218,0.363 -0.685,0.482 -1.048,0.271 L 21.405,9.19 c -0.327,-0.625 -0.66,-1.247 -1,-1.863 m 4.947,14.362 c 0,-1.203 -0.143,-2.44 -0.425,-3.68 -0.241,-1.052 -0.57,-2.116 -0.953,-3.173 l 6.788,4.439 c 0.35,0.229 0.455,0.695 0.235,1.051 -0.22,0.357 -0.683,0.475 -1.044,0.265 l -3.73,-2.155 6.078,3.789 c 0.358,0.223 0.47,0.692 0.254,1.053 -0.218,0.362 -0.686,0.484 -1.049,0.272 l -2.239,-1.293 1.835,1.138 c 0.359,0.222 0.472,0.691 0.256,1.053 -0.217,0.362 -0.685,0.484 -1.049,0.273 l -4.964,-2.866 c 0.001,-0.055 0.007,-0.111 0.007,-0.166 m 0.28,2.286 -0.536,-0.31 c 0.035,-0.13 0.082,-0.254 0.107,-0.389 0.082,-0.432 0.122,-0.87 0.136,-1.308 l 1.089,0.683 c 0.357,0.224 0.468,0.692 0.252,1.053 -0.218,0.361 -0.684,0.481 -1.048,0.271 M 21.951,10.254 30.069,15.6 c 0.35,0.229 0.452,0.696 0.233,1.051 -0.22,0.355 -0.682,0.472 -1.044,0.263 l -5.772,-3.332 c -0.379,-0.926 -0.789,-1.855 -1.252,-2.778 -0.091,-0.183 -0.189,-0.366 -0.283,-0.55 M 21.12,26.783 c 0.6,0 1.143,-0.097 1.623,-0.285 l 2.455,1.61 c 0.35,0.23 0.453,0.696 0.235,1.051 -0.22,0.358 -0.684,0.474 -1.045,0.265 L 19.16,26.405 c 0.642,0.243 1.297,0.378 1.96,0.378 m 3.474,-1.87 c 0.041,-0.068 0.066,-0.146 0.103,-0.217 l 1.664,1.086 c 0.35,0.229 0.455,0.695 0.236,1.051 -0.22,0.356 -0.684,0.475 -1.045,0.266 l -1.917,-1.108 c 0.387,-0.296 0.709,-0.657 0.959,-1.078 M 0.228,-3.545 c 0.052,0.048 0.103,0.1 0.15,0.154 -0.14,-0.074 -0.299,-0.138 -0.483,-0.19 -0.171,-0.048 -0.357,-0.111 -0.564,-0.189 -0.023,-0.009 -0.045,-0.019 -0.068,-0.029 -0.001,-0.05 0.001,-0.09 0.003,-0.121 0.099,0.02 0.253,0.055 0.463,0.122 0.284,0.091 0.428,0.188 0.499,0.253 m -10.523,-6.485 c 0.219,-0.357 0.681,-0.473 1.043,-0.264 l 4.022,2.321 c -0.114,0.089 -0.229,0.176 -0.332,0.273 -0.353,0.331 -0.643,0.703 -0.878,1.106 l -3.623,-2.386 c -0.35,-0.229 -0.452,-0.695 -0.232,-1.05 m -3.425,4.499 c -0.217,0.361 -0.104,0.83 0.254,1.053 l 6.073,3.785 -5.077,-2.931 c -0.366,-0.211 -0.833,-0.089 -1.05,0.272 -0.216,0.362 -0.102,0.831 0.256,1.053 l 1.833,1.137 -1.176,-0.68 c -0.365,-0.209 -0.831,-0.09 -1.048,0.272 -0.218,0.36 -0.106,0.829 0.251,1.051 L -10,1.618 -15.432,-1.518 c -0.363,-0.209 -0.825,-0.09 -1.044,0.265 -0.219,0.356 -0.114,0.822 0.236,1.051 l 11.901,7.774 c 0.01,-0.096 0.012,-0.202 0.028,-0.293 0.082,-0.47 0.224,-0.86 0.432,-1.186 0.246,-0.39 0.56,-0.687 0.93,-0.878 C -2.841,5.158 -2.73,5.111 -2.617,5.072 -2.849,4.879 -3.048,4.651 -3.211,4.393 -3.387,4.116 -3.525,3.814 -3.626,3.491 -3.717,3.193 -3.774,2.902 -3.786,2.705 -3.871,2.004 -3.612,1.334 -3.076,0.868 -3.01,0.811 -2.941,0.759 -2.869,0.709 -2.9,0.71 -2.932,0.71 -2.963,0.71 -3.398,0.71 -3.831,0.658 -4.253,0.554 -4.754,0.43 -5.211,0.215 -5.61,-0.084 c -0.418,-0.312 -0.764,-0.72 -1.028,-1.211 -0.193,-0.36 -0.316,-0.791 -0.401,-1.256 l -5.632,-3.252 c -0.364,-0.21 -0.832,-0.089 -1.049,0.272"
         style="fill:#fbb040;fill-opacity:1;fill-rule:nonzero;stroke:none"
         id="path45627" />
    </g>
    <g
       id="g45629"
       transform="translate(402.3828,361.2012)"
       clip-path="url(#clipPath45831)">
      <path
         d="m 0,0 c 0.521,0.932 1.074,1.98 1.659,3.145 0.586,1.165 1.139,2.365 1.66,3.599 0.522,1.235 0.974,2.467 1.356,3.696 0.383,1.229 0.627,2.373 0.73,3.434 0,0.338 -0.007,0.626 -0.024,0.865 -0.017,0.239 -0.069,0.358 -0.155,0.358 -0.319,0 -0.661,-0.22 -1.028,-0.659 C 3.832,14 3.465,13.406 3.099,12.657 2.732,11.908 2.294,10.69 1.785,9.003 1.275,7.315 1.022,6.473 1.022,6.473 c 0,0 -0.156,-0.785 -0.467,-2.35 C 0.244,2.558 0.06,1.184 0,0 m -0.017,-13.735 c -0.622,0 -1.2,0.27 -1.734,0.81 -0.536,0.54 -1.002,1.265 -1.399,2.175 -0.397,0.909 -0.708,1.964 -0.932,3.163 -0.225,1.199 -0.336,2.459 -0.336,3.777 0,1.134 0.166,2.648 0.499,4.539 0.333,1.894 0.499,2.84 0.499,2.84 0,0 0.253,0.945 0.757,2.835 0.505,1.891 1.011,3.406 1.518,4.549 0.508,1.142 1.059,2.208 1.655,3.2 0.595,0.993 1.219,1.858 1.872,2.594 0.653,0.737 1.336,1.316 2.048,1.738 0.712,0.421 1.435,0.631 2.17,0.631 0.535,0 0.976,-0.101 1.325,-0.306 0.348,-0.204 0.622,-0.473 0.82,-0.808 0.199,-0.335 0.339,-0.714 0.421,-1.139 0.08,-0.424 0.12,-0.855 0.12,-1.295 0,-1.092 -0.129,-2.205 -0.387,-3.337 C 8.641,11.099 8.293,9.961 7.855,8.816 7.416,7.673 6.908,6.525 6.332,5.375 5.756,4.226 5.155,3.084 4.531,1.951 3.906,0.818 3.278,-0.296 2.648,-1.395 2.018,-2.492 1.436,-3.565 0.902,-4.612 0.845,-4.729 0.783,-4.881 0.721,-5.067 0.656,-5.254 0.596,-5.455 0.537,-5.671 0.48,-5.886 0.422,-6.115 0.364,-6.36 0.306,-6.605 0.259,-6.844 0.225,-7.077 v -0.244 c 0,-0.304 0.031,-0.597 0.095,-0.883 0.064,-0.285 0.142,-0.542 0.235,-0.769 0.093,-0.227 0.191,-0.408 0.296,-0.542 0.104,-0.133 0.202,-0.2 0.296,-0.2 0.223,0 0.481,0.047 0.771,0.14 0.289,0.092 0.597,0.218 0.922,0.375 0.325,0.157 0.66,0.338 1.002,0.542 0.344,0.204 0.675,0.41 0.995,0.62 0.744,0.489 1.525,1.054 2.342,1.695 l 1.529,-3.652 c -1.059,-0.703 -2.105,-1.329 -3.141,-1.878 -0.451,-0.231 -0.919,-0.459 -1.4,-0.685 -0.481,-0.224 -0.966,-0.425 -1.454,-0.601 -0.488,-0.176 -0.964,-0.315 -1.428,-0.42 -0.464,-0.104 -0.897,-0.156 -1.302,-0.156 m -16.755,4.276 c -0.047,-0.386 -0.041,-0.715 0.016,-0.987 0.058,-0.273 0.15,-0.494 0.278,-0.664 0.126,-0.171 0.28,-0.295 0.46,-0.374 0.178,-0.081 0.371,-0.12 0.58,-0.12 0.3,0 0.672,0.071 1.117,0.213 0.444,0.142 0.803,0.337 1.074,0.587 0.272,0.249 0.506,0.548 0.702,0.894 0.196,0.346 0.312,0.718 0.346,1.115 0.07,0.648 0.046,1.325 -0.069,2.035 -0.116,0.709 -0.323,1.202 -0.624,1.481 -0.3,0.278 -0.696,0.491 -1.186,0.638 -0.491,0.149 -1.067,0.256 -1.724,0.324 -0.371,0.023 -0.63,0.099 -0.78,0.23 -0.15,0.131 -0.214,0.292 -0.19,0.485 0.011,0.159 0.045,0.332 0.103,0.519 0.058,0.187 0.139,0.364 0.243,0.528 0.104,0.165 0.236,0.301 0.398,0.408 0.162,0.109 0.346,0.163 0.555,0.163 0.461,0 0.886,0.085 1.273,0.255 0.387,0.17 0.731,0.553 1.031,1.149 0.3,0.597 0.531,1.051 0.693,1.362 0.162,0.312 0.26,0.616 0.294,0.911 0.035,0.386 -0.057,0.715 -0.276,0.988 -0.22,0.272 -0.596,0.408 -1.127,0.408 -0.415,0 -0.777,-0.097 -1.082,-0.289 -0.307,-0.193 -0.471,-0.42 -0.495,-0.681 -0.011,-0.137 0.027,-0.278 0.113,-0.426 0.087,-0.147 0.239,-0.284 0.459,-0.409 0.115,-0.067 0.168,-0.142 0.156,-0.221 0,-0.091 -0.089,-0.178 -0.268,-0.264 -0.18,-0.085 -0.381,-0.159 -0.607,-0.221 -0.225,-0.062 -0.439,-0.114 -0.641,-0.153 -0.202,-0.04 -0.338,-0.06 -0.407,-0.06 -0.139,0 -0.271,0.032 -0.399,0.099 -0.127,0.066 -0.239,0.177 -0.337,0.332 -0.099,0.155 -0.171,0.365 -0.217,0.629 -0.046,0.263 -0.052,0.592 -0.017,0.987 0.069,0.754 0.263,1.389 0.58,1.903 0.318,0.515 0.713,0.922 1.187,1.222 0.474,0.299 0.999,0.521 1.577,0.663 0.577,0.144 1.166,0.216 1.767,0.216 0.624,0 1.231,-0.08 1.822,-0.241 0.59,-0.16 1.108,-0.393 1.554,-0.697 C -8.395,5.175 -8.043,4.8 -7.785,4.353 -7.528,3.906 -7.434,3.326 -7.503,2.611 -7.525,2.278 -7.592,1.911 -7.704,1.513 -7.815,1.114 -7.991,0.718 -8.231,0.324 -8.471,-0.068 -8.81,-0.631 -9.25,-1.363 c -0.44,-0.732 -0.99,-1.212 -1.647,-1.438 0.691,-0.182 1.263,-0.454 1.713,-0.812 0.451,-0.36 0.807,-0.781 1.069,-1.265 0.262,-0.484 0.435,-1.144 0.52,-1.982 0.084,-0.837 0.098,-1.553 0.04,-2.145 -0.057,-0.603 -0.265,-1.205 -0.625,-1.803 -0.359,-0.598 -0.836,-1.133 -1.426,-1.607 -0.591,-0.472 -1.275,-0.857 -2.052,-1.153 -0.777,-0.296 -1.609,-0.444 -2.499,-0.444 -1.305,0 -2.33,0.114 -3.075,0.342 -0.745,0.229 -1.343,0.554 -1.793,0.976 -0.451,0.422 -0.76,0.928 -0.928,1.516 -0.167,0.588 -0.216,1.237 -0.147,1.945 0.046,0.433 0.147,0.795 0.304,1.086 0.155,0.292 0.352,0.526 0.589,0.703 0.237,0.177 0.504,0.302 0.806,0.377 0.3,0.074 0.606,0.111 0.918,0.111 0.265,0 0.563,-0.031 0.892,-0.094 0.329,-0.062 0.633,-0.144 0.909,-0.246 0.278,-0.103 0.509,-0.216 0.694,-0.342 0.185,-0.124 0.271,-0.243 0.26,-0.356 -0.012,-0.092 -0.119,-0.165 -0.321,-0.222 -0.202,-0.056 -0.43,-0.134 -0.684,-0.229 -0.255,-0.097 -0.486,-0.222 -0.693,-0.375 -0.209,-0.154 -0.324,-0.367 -0.346,-0.639"
         style="fill:#1c75bc;fill-opacity:1;fill-rule:nonzero;stroke:none"
         id="path45631" />
    </g>
    <g
       id="g45633"
       transform="translate(424.0078,257.8291)"
       clip-path="url(#clipPath45827)">
      <path
         d="m 0,0 c -0.81,-0.577 -1.609,-1.502 -2.395,-2.773 -0.788,-1.269 -1.414,-2.563 -1.875,-3.879 -0.382,-1.11 -0.193,-1.663 0.57,-1.663 0.277,0 0.525,0.034 0.745,0.103 0.219,0.069 0.422,0.193 0.606,0.372 0.185,0.18 0.347,0.376 0.486,0.59 0.137,0.213 0.286,0.514 0.441,0.9 0.156,0.388 0.295,0.769 0.416,1.144 0.121,0.376 0.275,0.876 0.459,1.499 0.105,0.336 0.182,0.708 0.232,1.119 0.05,0.411 0.11,0.905 0.18,1.483 C -0.064,-0.528 -0.02,-0.159 0,0 m -0.061,4.177 0.38,2.094 C -0.304,5.724 -0.954,5.279 -1.629,4.942 -2.306,4.605 -2.961,4.436 -3.597,4.436 -4.15,4.436 -4.691,4.549 -5.216,4.774 -5.742,5 -6.207,5.323 -6.611,5.745 c -0.405,0.422 -0.728,0.936 -0.97,1.542 -0.242,0.607 -0.364,1.291 -0.364,2.053 0,1.005 0.069,1.927 0.208,2.763 0.137,0.837 0.309,1.872 0.511,3.102 0.204,1.23 0.444,2.2 0.72,2.911 0.279,0.71 0.596,1.43 0.953,2.157 0.266,0.52 0.647,0.916 1.144,1.188 0.496,0.27 0.981,0.406 1.455,0.406 0.403,0 0.75,-0.1 1.039,-0.303 0.288,-0.202 0.433,-0.516 0.433,-0.944 0,-0.128 -0.014,-0.267 -0.042,-0.417 -0.029,-0.15 -0.078,-0.311 -0.145,-0.485 -0.205,-0.532 -0.377,-1.164 -0.517,-1.896 -0.14,-0.732 -0.328,-1.709 -0.561,-2.929 -0.234,-1.221 -0.419,-2.189 -0.557,-2.905 -0.136,-0.715 -0.206,-1.352 -0.206,-1.913 0,-0.292 0.02,-0.575 0.061,-0.849 0.041,-0.275 0.113,-0.52 0.217,-0.736 0.103,-0.216 0.243,-0.391 0.416,-0.525 0.173,-0.135 0.392,-0.201 0.658,-0.201 0.427,0 0.814,0.185 1.161,0.557 0.347,0.373 0.646,0.821 0.9,1.344 0.255,0.524 0.46,1.064 0.616,1.623 0.156,0.559 0.257,1.025 0.303,1.397 l 1.388,6.479 c 0.082,0.382 0.243,0.729 0.486,1.04 0.232,0.301 0.504,0.558 0.817,0.772 0.312,0.213 0.635,0.372 0.971,0.476 0.335,0.104 0.654,0.156 0.955,0.156 0.358,0 0.66,-0.079 0.902,-0.235 0.243,-0.156 0.364,-0.401 0.364,-0.736 0,-0.105 -0.016,-0.226 -0.052,-0.366 C 6.599,19.965 6.527,19.552 6.437,19.034 6.347,18.516 6.243,17.926 6.128,17.266 6.012,16.604 5.851,15.679 5.644,14.486 5.437,13.294 5.269,12.336 5.14,11.609 4.847,9.896 4.548,8.053 4.243,6.083 4.595,6.279 4.974,6.521 5.379,6.81 5.785,7.099 6.236,7.485 6.732,7.97 7.23,8.454 7.783,9.064 8.397,9.797 c 0.611,0.732 1.298,1.646 2.061,2.744 L 11.29,8.685 C 11.082,8.328 10.816,7.967 10.493,7.601 10.146,7.21 9.776,6.831 9.384,6.464 8.806,5.935 8.391,5.581 8.137,5.397 8.056,5.34 7.635,5.008 6.871,4.402 6.641,4.206 5.876,3.675 4.577,2.809 4.261,2.601 4.045,2.223 3.928,1.674 3.811,1.125 3.676,0.106 3.523,-1.384 3.458,-1.808 3.417,-2.136 3.4,-2.365 3.329,-2.917 3.263,-3.442 3.2,-3.942 3.137,-4.442 3.024,-5.013 2.863,-5.653 2.701,-6.295 2.512,-6.884 2.293,-7.422 2.073,-7.959 1.785,-8.493 1.428,-9.025 1.07,-9.557 0.675,-10.01 0.243,-10.386 c -0.432,-0.376 -0.954,-0.678 -1.565,-0.91 -0.612,-0.231 -1.28,-0.347 -2.005,-0.347 -0.589,0 -1.134,0.067 -1.635,0.2 -0.502,0.132 -0.96,0.337 -1.375,0.614 -0.415,0.277 -0.755,0.655 -1.019,1.134 -0.266,0.478 -0.421,1.041 -0.467,1.687 -0.093,1.224 0.242,2.516 1.005,3.877 0.426,0.762 0.726,1.29 0.9,1.584 0.173,0.294 0.444,0.719 0.815,1.273 0.369,0.542 0.756,1.032 1.161,1.47 0.807,0.912 1.474,1.645 2.001,2.199 0.525,0.554 1.152,1.148 1.88,1.782 m -12.234,14.03 c 0.522,0.932 1.074,1.979 1.66,3.145 0.586,1.165 1.139,2.364 1.66,3.599 0.522,1.235 0.974,2.467 1.356,3.695 0.383,1.23 0.626,2.375 0.73,3.434 0,0.338 -0.008,0.626 -0.025,0.865 -0.017,0.24 -0.067,0.359 -0.155,0.359 -0.318,0 -0.66,-0.22 -1.027,-0.658 -0.367,-0.44 -0.733,-1.034 -1.1,-1.782 -0.365,-0.749 -0.804,-1.967 -1.314,-3.655 -0.508,-1.687 -0.763,-2.53 -0.763,-2.531 0,0 -0.156,-0.783 -0.466,-2.349 -0.311,-1.564 -0.496,-2.939 -0.556,-4.122 M -12.311,4.472 c -0.622,0 -1.2,0.269 -1.735,0.81 -0.535,0.54 -1.002,1.264 -1.398,2.174 -0.398,0.909 -0.708,1.964 -0.932,3.164 -0.226,1.199 -0.337,2.459 -0.337,3.777 0,1.133 0.166,2.647 0.499,4.539 0.333,1.893 0.5,2.839 0.5,2.839 0,0 0.253,0.945 0.757,2.836 0.505,1.891 1.011,3.407 1.519,4.549 0.506,1.141 1.058,2.208 1.654,3.2 0.594,0.993 1.218,1.857 1.872,2.594 0.652,0.737 1.336,1.317 2.047,1.737 0.713,0.421 1.435,0.632 2.171,0.632 0.535,0 0.976,-0.101 1.325,-0.306 0.348,-0.203 0.621,-0.473 0.82,-0.808 0.199,-0.336 0.339,-0.715 0.42,-1.139 0.08,-0.424 0.121,-0.856 0.121,-1.296 0,-1.091 -0.129,-2.204 -0.387,-3.337 -0.258,-1.131 -0.606,-2.269 -1.044,-3.414 -0.439,-1.144 -0.947,-2.292 -1.523,-3.441 -0.577,-1.15 -1.178,-2.292 -1.802,-3.424 -0.624,-1.133 -1.252,-2.248 -1.882,-3.346 -0.63,-1.097 -1.213,-2.17 -1.746,-3.218 -0.057,-0.117 -0.119,-0.269 -0.182,-0.455 -0.065,-0.187 -0.124,-0.387 -0.183,-0.603 -0.057,-0.215 -0.115,-0.445 -0.174,-0.689 -0.057,-0.245 -0.104,-0.484 -0.138,-0.717 v -0.244 c 0,-0.304 0.031,-0.598 0.095,-0.883 0.064,-0.285 0.142,-0.542 0.235,-0.77 0.093,-0.226 0.191,-0.408 0.296,-0.541 0.103,-0.133 0.202,-0.201 0.296,-0.201 0.223,0 0.48,0.047 0.77,0.14 0.29,0.094 0.598,0.219 0.923,0.376 0.325,0.157 0.659,0.338 1.002,0.542 0.344,0.203 0.675,0.41 0.994,0.62 0.745,0.488 1.526,1.054 2.343,1.695 L -3.586,8.212 C -4.645,7.509 -5.691,6.882 -6.727,6.333 -7.179,6.103 -7.645,5.875 -8.127,5.649 -8.609,5.425 -9.094,5.224 -9.581,5.048 -10.069,4.872 -10.545,4.732 -11.009,4.628 -11.473,4.523 -11.907,4.472 -12.311,4.472 M -22.69,26.346 c 0,0.267 0.056,0.571 0.172,0.909 0.117,0.338 0.304,0.656 0.564,0.953 0.26,0.298 0.606,0.548 1.039,0.753 0.434,0.203 0.974,0.306 1.62,0.306 0.404,0 0.785,-0.047 1.144,-0.14 0.358,-0.094 0.67,-0.236 0.935,-0.429 0.266,-0.192 0.478,-0.446 0.633,-0.761 0.156,-0.315 0.233,-0.688 0.233,-1.12 0,-0.396 -0.063,-0.78 -0.189,-1.154 -0.128,-0.372 -0.33,-0.705 -0.607,-0.996 -0.278,-0.292 -0.627,-0.528 -1.048,-0.709 -0.422,-0.181 -0.927,-0.271 -1.517,-0.271 -1.016,0 -1.766,0.242 -2.252,0.726 -0.485,0.483 -0.727,1.128 -0.727,1.933 m 7.745,-18.184 c -0.416,-0.382 -0.934,-0.788 -1.551,-1.222 -0.618,-0.433 -1.285,-0.832 -2.001,-1.195 -0.717,-0.363 -1.447,-0.667 -2.192,-0.91 -0.746,-0.242 -1.454,-0.363 -2.123,-0.363 -0.601,0 -1.106,0.084 -1.516,0.251 -0.41,0.168 -0.742,0.401 -0.997,0.702 -0.254,0.3 -0.436,0.666 -0.545,1.099 -0.11,0.434 -0.165,0.911 -0.165,1.43 0,0.729 0.081,1.577 0.243,2.547 0.333,2.007 0.546,3.135 0.642,3.383 0.157,0.493 0.472,1.586 0.944,3.279 0.438,1.379 0.709,2.277 0.813,2.693 0.057,0.292 0.215,0.555 0.477,0.789 0.237,0.21 0.508,0.382 0.808,0.516 0.3,0.135 0.613,0.235 0.936,0.298 0.323,0.064 0.615,0.097 0.877,0.097 0.477,0 0.8,-0.09 0.97,-0.269 0.171,-0.18 0.256,-0.418 0.256,-0.719 0,-0.254 -0.06,-0.613 -0.178,-1.077 -0.118,-0.464 -0.255,-0.993 -0.406,-1.587 -0.152,-0.593 -0.376,-1.356 -0.674,-2.289 -0.298,-0.933 -0.501,-1.728 -0.61,-2.387 -0.109,-0.658 -0.247,-1.312 -0.413,-1.961 -0.166,-0.651 -0.249,-1.241 -0.249,-1.772 0,-0.519 0.057,-0.931 0.173,-1.237 0.116,-0.307 0.352,-0.46 0.71,-0.46 0.416,0 0.878,0.144 1.387,0.433 0.508,0.29 1.022,0.638 1.542,1.049 0.519,0.409 1.028,0.834 1.524,1.274 0.497,0.438 0.936,0.813 1.318,1.126 z m -24.016,1.961 c 0,-0.299 0.02,-0.588 0.06,-0.867 0.041,-0.28 0.113,-0.53 0.217,-0.751 0.104,-0.221 0.244,-0.4 0.417,-0.535 0.173,-0.138 0.393,-0.206 0.66,-0.206 0.427,0 0.815,0.185 1.162,0.557 0.347,0.372 0.648,0.821 0.903,1.344 0.254,0.524 0.46,1.064 0.616,1.622 0.156,0.559 0.258,1.023 0.304,1.396 l 1.292,5.632 c -0.474,0 -0.935,-0.117 -1.386,-0.352 -0.451,-0.235 -0.875,-0.552 -1.274,-0.953 -0.399,-0.401 -0.765,-0.859 -1.1,-1.373 -0.335,-0.516 -0.664,-1.152 -0.988,-1.908 -0.323,-0.755 -0.551,-1.419 -0.684,-1.992 -0.133,-0.573 -0.199,-1.11 -0.199,-1.614 m 14.865,-1.357 c -0.266,-0.374 -0.621,-0.813 -1.066,-1.315 -0.445,-0.503 -0.944,-0.981 -1.499,-1.436 -0.554,-0.456 -1.149,-0.842 -1.784,-1.158 -0.636,-0.315 -1.271,-0.472 -1.906,-0.472 -0.767,0 -1.408,0.243 -1.92,0.728 -0.512,0.487 -0.955,1.193 -1.327,2.119 -0.28,-0.32 -0.624,-0.646 -1.031,-0.978 -0.407,-0.331 -0.853,-0.631 -1.336,-0.9 -0.483,-0.268 -0.987,-0.489 -1.512,-0.66 -0.523,-0.172 -1.047,-0.258 -1.571,-0.258 -0.554,0 -1.095,0.114 -1.62,0.342 -0.526,0.227 -0.99,0.553 -1.395,0.978 -0.404,0.426 -0.727,0.944 -0.97,1.556 -0.242,0.612 -0.364,1.302 -0.364,2.072 0,0.863 0.122,1.749 0.366,2.659 0.244,0.909 0.622,1.892 1.134,2.952 0.51,1.06 1.06,1.974 1.647,2.745 0.586,0.772 1.228,1.445 1.926,2.021 0.697,0.575 1.431,1.032 2.204,1.372 0.773,0.34 1.56,0.51 2.362,0.51 0.268,0 0.477,-0.053 0.628,-0.158 0.151,-0.105 0.276,-0.224 0.375,-0.359 0.098,-0.135 0.194,-0.266 0.287,-0.394 0.093,-0.129 0.209,-0.221 0.348,-0.28 0.14,-0.058 0.282,-0.097 0.428,-0.114 0.144,-0.018 0.293,-0.027 0.444,-0.027 0.127,0 0.258,0.003 0.393,0.009 0.133,0.006 0.263,0.009 0.392,0.009 0.174,0 0.336,-0.018 0.488,-0.052 0.151,-0.036 0.284,-0.111 0.4,-0.227 0.116,-0.117 0.205,-0.28 0.269,-0.491 0.063,-0.21 0.095,-0.497 0.095,-0.858 0,-0.553 -0.057,-1.165 -0.173,-1.838 -0.116,-0.673 -0.248,-1.362 -0.397,-2.069 -0.149,-0.706 -0.319,-1.511 -0.509,-2.415 -0.191,-0.904 -0.287,-1.666 -0.287,-2.285 0,-0.53 0.05,-0.944 0.147,-1.242 0.099,-0.298 0.31,-0.448 0.633,-0.448 0.243,0 0.497,0.061 0.763,0.181 0.266,0.12 0.534,0.277 0.806,0.473 0.27,0.194 0.542,0.415 0.814,0.661 0.271,0.246 0.528,0.501 0.771,0.764 0.565,0.619 1.137,1.317 1.715,2.095 z m -35.238,25.785 c 1.89,0 3.57,-0.155 5.042,-0.466 1.471,-0.311 2.76,-0.742 3.867,-1.295 1.107,-0.552 2.043,-1.211 2.808,-1.976 0.764,-0.765 1.384,-1.6 1.859,-2.504 0.476,-0.902 0.82,-1.861 1.035,-2.873 0.214,-1.012 0.321,-2.048 0.321,-3.107 0,-1.459 -0.162,-3.04 -0.487,-4.742 -0.324,-1.702 -0.793,-3.253 -1.407,-4.654 -0.615,-1.402 -1.371,-2.715 -2.269,-3.943 -0.898,-1.227 -1.926,-2.299 -3.084,-3.213 -1.159,-0.915 -2.434,-1.635 -3.825,-2.162 -1.39,-0.527 -2.891,-0.791 -4.502,-0.791 -0.537,0 -1.087,0.041 -1.646,0.124 -0.561,0.083 -1.104,0.196 -1.63,0.336 -0.526,0.143 -1.024,0.302 -1.493,0.478 -0.469,0.177 -0.881,0.36 -1.235,0.548 -0.149,0.048 -0.266,0.104 -0.351,0.168 -0.086,0.066 -0.152,0.143 -0.198,0.231 -0.046,0.088 -0.075,0.197 -0.086,0.327 -0.011,0.13 -0.017,0.295 -0.017,0.496 0,1.915 0.049,3.878 0.145,5.886 0.096,2.008 0.294,4.072 0.591,6.189 0.297,2.119 0.726,3.988 1.287,5.61 0.56,1.622 1.303,3.119 2.23,4.493 0.228,0.334 0.966,0.502 2.212,0.502 0.983,0 1.689,-0.358 2.117,-1.073 -0.532,-0.715 -0.977,-1.511 -1.336,-2.388 -0.358,-0.877 -0.659,-1.739 -0.902,-2.586 -0.243,-0.849 -0.445,-1.774 -0.607,-2.777 -0.313,-1.939 -0.463,-2.919 -0.451,-2.942 0.035,-0.023 -0.099,-1.131 -0.399,-3.322 -0.116,-0.762 -0.206,-1.425 -0.27,-1.99 -0.063,-0.565 -0.109,-1.062 -0.138,-1.488 -0.029,-0.427 -0.043,-0.841 -0.043,-1.246 0,-0.426 0.014,-0.784 0.043,-1.072 0.029,-0.289 0.099,-0.519 0.208,-0.692 0.11,-0.174 0.278,-0.297 0.503,-0.372 0.226,-0.076 0.529,-0.113 0.911,-0.113 1.157,0 2.255,0.228 3.296,0.683 1.041,0.456 2.001,1.068 2.88,1.834 0.879,0.767 1.669,1.659 2.368,2.675 0.7,1.014 1.296,2.187 1.787,3.519 0.492,1.333 0.871,2.585 1.137,3.756 0.266,1.17 0.399,2.298 0.399,3.382 0,1.338 -0.22,2.535 -0.659,3.591 -0.44,1.054 -1.056,1.949 -1.848,2.681 -0.792,0.733 -1.743,1.291 -2.854,1.679 -1.11,0.386 -2.331,0.579 -3.661,0.579 -0.971,0 -1.934,-0.057 -2.887,-0.174 -0.952,-0.116 -1.836,-0.296 -2.651,-0.54 -0.814,-0.243 -1.53,-0.554 -2.148,-0.931 -0.618,-0.377 -1.083,-0.827 -1.395,-1.35 -0.843,-1.311 -1.536,-2.324 -2.079,-3.038 -0.543,-0.714 -0.999,-1.071 -1.369,-1.071 -0.509,0 -0.762,0.584 -0.762,1.751 0,1.132 0.147,2.147 0.441,3.05 0.295,0.9 0.705,1.7 1.231,2.398 0.525,0.699 1.149,1.295 1.871,1.785 0.722,0.491 1.513,0.896 2.374,1.213 0.86,0.317 1.776,0.552 2.746,0.702 0.97,0.15 1.964,0.225 2.98,0.225 M 6.245,50.676 c 0,0.508 0.029,1.1 0.086,1.776 0.059,0.675 0.136,1.389 0.234,2.14 0.098,0.751 0.214,1.515 0.347,2.296 0.133,0.779 0.304,1.611 0.511,2.495 0.208,0.884 0.388,1.62 0.537,2.209 0.15,0.59 0.301,1.074 0.451,1.456 0.093,0.254 0.185,0.456 0.278,0.606 0.091,0.15 0.199,0.269 0.32,0.356 0.121,0.086 0.27,0.143 0.45,0.172 0.18,0.029 0.401,0.044 0.667,0.044 0.301,0 0.534,-0.015 0.702,-0.044 0.167,-0.029 0.291,-0.098 0.373,-0.207 0.08,-0.111 0.129,-0.269 0.147,-0.477 0.017,-0.208 0.025,-0.491 0.025,-0.849 0,-0.427 -0.028,-1.035 -0.086,-1.82 -0.057,-0.785 -0.075,-1.473 -0.052,-2.061 h 0.191 c 0.23,0.461 0.519,1.068 0.866,1.819 0.347,0.751 0.711,1.375 1.092,1.871 0.382,0.497 0.814,0.915 1.3,1.256 0.485,0.342 1.045,0.512 1.679,0.512 0.22,0 0.434,-0.037 0.642,-0.114 0.208,-0.074 0.391,-0.181 0.546,-0.319 0.156,-0.139 0.28,-0.31 0.372,-0.512 0.093,-0.202 0.139,-0.429 0.139,-0.684 0,-0.197 -0.029,-0.471 -0.086,-0.824 -0.059,-0.351 -0.151,-0.811 -0.278,-1.377 -0.127,-0.566 -0.219,-1.031 -0.277,-1.394 -0.059,-0.364 -0.087,-0.668 -0.087,-0.91 0,-0.416 0.041,-0.763 0.121,-1.04 0.081,-0.277 0.189,-0.499 0.321,-0.666 0.133,-0.168 0.283,-0.286 0.451,-0.356 0.167,-0.069 0.342,-0.104 0.529,-0.104 0.519,0 1.056,0.115 1.61,0.346 0.555,0.232 1.064,0.492 1.525,0.78 0.544,0.336 1.075,0.717 1.594,1.144 l -0.259,-4.054 c -0.301,-0.198 -0.642,-0.416 -1.023,-0.66 -0.382,-0.242 -0.788,-0.47 -1.221,-0.683 -0.434,-0.214 -0.884,-0.394 -1.352,-0.537 -0.468,-0.146 -0.944,-0.217 -1.429,-0.217 -0.867,0 -1.565,0.176 -2.096,0.528 -0.533,0.352 -0.954,0.815 -1.266,1.387 -0.312,0.571 -0.542,1.212 -0.692,1.923 -0.151,0.71 -0.272,1.428 -0.365,2.157 H 13.505 L 10.403,49.394 C 10.242,48.943 10.089,48.57 9.944,48.276 9.8,47.981 9.652,47.742 9.502,47.557 9.353,47.372 9.19,47.242 9.018,47.167 8.844,47.093 8.653,47.055 8.445,47.055 c -0.473,0 -0.854,0.1 -1.143,0.302 C 7.014,47.56 6.791,47.831 6.635,48.172 6.48,48.513 6.375,48.9 6.323,49.333 6.271,49.767 6.245,50.214 6.245,50.676 m -9.564,4.631 c 0.417,0 0.872,0.104 1.365,0.313 0.492,0.209 0.95,0.478 1.374,0.806 0.423,0.327 0.837,0.767 1.243,1.32 0.405,0.554 0.609,1.012 0.609,1.373 0,0.508 -0.096,0.926 -0.287,1.254 -0.192,0.327 -0.426,0.491 -0.705,0.491 -0.499,0 -0.923,-0.09 -1.278,-0.271 -0.354,-0.181 -0.649,-0.415 -0.887,-0.703 -0.238,-0.288 -0.428,-0.616 -0.573,-0.983 -0.146,-0.367 -0.314,-0.822 -0.505,-1.364 -0.191,-0.541 -0.299,-0.988 -0.321,-1.338 -0.024,-0.351 -0.035,-0.649 -0.035,-0.898 m 2.312,-8.252 c -1.078,0 -2.022,0.2 -2.831,0.599 -0.808,0.4 -1.483,0.938 -2.022,1.614 -0.54,0.675 -0.945,1.458 -1.213,2.345 -0.27,0.888 -0.405,1.82 -0.405,2.796 0,0.639 0.121,1.399 0.362,2.282 0.241,0.885 0.491,1.668 0.749,2.352 0.26,0.685 0.584,1.337 0.974,1.958 0.39,0.622 0.848,1.169 1.371,1.642 0.522,0.474 1.108,0.849 1.757,1.128 0.65,0.281 1.37,0.42 2.163,0.42 0.648,0 1.25,-0.104 1.804,-0.311 C 2.257,63.672 2.74,63.38 3.15,63.005 3.561,62.63 3.882,62.178 4.113,61.647 4.344,61.116 4.46,60.522 4.46,59.865 4.46,59.164 4.226,58.38 3.757,57.51 3.288,56.641 2.74,55.895 2.116,55.273 1.49,54.652 0.747,54.099 -0.115,53.612 -0.978,53.127 -1.912,52.749 -2.92,52.478 c 0.174,-0.306 0.346,-0.56 0.514,-0.763 0.167,-0.203 0.339,-0.362 0.513,-0.475 0.173,-0.112 0.356,-0.191 0.547,-0.236 0.192,-0.046 0.397,-0.069 0.618,-0.069 0.693,0 1.423,0.136 2.191,0.408 0.769,0.27 1.517,0.61 2.244,1.016 0.729,0.407 1.416,0.85 2.063,1.33 0.647,0.48 1.195,0.935 1.645,1.364 L 9.651,52.782 C 8.634,51.7 7.555,50.742 6.41,49.909 5.914,49.553 5.38,49.202 4.808,48.856 4.236,48.512 3.636,48.205 3.006,47.939 2.376,47.67 1.724,47.456 1.048,47.295 c -0.676,-0.16 -1.36,-0.24 -2.055,-0.24 M -11.03,72.878 c 0,0.126 -0.009,0.267 -0.027,0.422 -0.017,0.155 -0.054,0.302 -0.113,0.44 -0.057,0.138 -0.146,0.253 -0.269,0.346 -0.121,0.092 -0.292,0.138 -0.513,0.138 -0.302,0 -0.606,-0.264 -0.914,-0.792 -0.307,-0.528 -0.603,-1.201 -0.887,-2.021 -0.284,-0.82 -0.551,-1.723 -0.8,-2.71 -0.249,-0.985 -0.478,-1.944 -0.687,-2.872 0.174,-0.018 0.347,-0.032 0.522,-0.045 0.173,-0.013 0.353,-0.028 0.539,-0.046 0.348,0.583 0.71,1.213 1.087,1.892 0.377,0.68 0.716,1.347 1.018,2.004 0.302,0.656 0.551,1.269 0.748,1.84 0.197,0.571 0.296,1.039 0.296,1.404 m 5.545,-21.943 c -1.111,-0.646 -2.1,-1.211 -2.968,-1.697 -0.867,-0.485 -1.64,-0.889 -2.317,-1.214 -0.676,-0.323 -1.277,-0.565 -1.803,-0.726 -0.527,-0.162 -1.004,-0.243 -1.432,-0.243 -0.873,0 -1.642,0.265 -2.308,0.797 -0.667,0.531 -1.225,1.296 -1.672,2.295 -0.449,0.999 -0.785,2.209 -1.009,3.63 -0.224,1.421 -0.336,3.021 -0.336,4.8 0,0.694 0.028,1.432 0.086,2.218 0.058,0.786 0.137,1.565 0.24,2.339 -0.348,0.051 -0.619,0.099 -0.81,0.144 -0.193,0.045 -0.396,0.091 -0.611,0.136 -0.216,0.045 -0.489,0.093 -0.82,0.145 -0.331,0.05 -0.812,0.115 -1.439,0.192 -0.279,0.039 -0.494,0.112 -0.646,0.222 -0.15,0.109 -0.261,0.238 -0.331,0.385 -0.069,0.149 -0.11,0.302 -0.122,0.463 -0.011,0.161 -0.017,0.3 -0.017,0.415 0,0.183 0.114,0.322 0.339,0.417 0.227,0.096 0.517,0.168 0.871,0.216 0.355,0.048 0.742,0.074 1.167,0.081 0.424,0.005 0.83,0.002 1.22,-0.01 0.389,-0.01 0.737,-0.019 1.045,-0.025 0.306,-0.006 0.519,0.002 0.636,0.025 0.311,1.556 0.706,3.062 1.183,4.519 0.48,1.457 1.016,2.753 1.61,3.888 0.593,1.133 1.242,2.045 1.946,2.729 0.703,0.686 1.441,1.028 2.214,1.028 0.497,0 0.95,-0.138 1.36,-0.415 0.411,-0.277 0.76,-0.646 1.049,-1.108 0.289,-0.462 0.512,-1.001 0.668,-1.618 0.156,-0.618 0.234,-1.261 0.234,-1.93 0,-0.555 -0.081,-1.139 -0.243,-1.755 -0.162,-0.616 -0.381,-1.243 -0.659,-1.882 -0.276,-0.638 -0.604,-1.285 -0.979,-1.94 -0.375,-0.655 -0.771,-1.306 -1.187,-1.949 0.104,0.038 0.278,0.046 0.52,0.022 0.243,-0.023 0.524,-0.04 0.841,-0.05 0.318,-0.008 0.662,-0.017 1.031,-0.026 0.37,-0.011 0.728,-0.02 1.075,-0.032 0.346,-0.011 0.67,-0.024 0.97,-0.034 0.3,-0.012 0.549,-0.024 0.744,-0.035 0.232,-0.013 0.399,-0.141 0.503,-0.386 0.105,-0.244 0.157,-0.553 0.157,-0.926 0,-0.432 -0.117,-0.783 -0.347,-1.054 -0.232,-0.271 -0.486,-0.406 -0.764,-0.406 h -6.661 c -0.336,-0.463 -0.676,-0.916 -1.018,-1.36 -0.342,-0.446 -0.659,-0.847 -0.949,-1.205 -0.046,-0.716 -0.086,-1.42 -0.121,-2.114 -0.011,-0.3 -0.023,-0.609 -0.034,-0.926 -0.012,-0.319 -0.023,-0.633 -0.035,-0.945 -0.012,-0.311 -0.021,-0.613 -0.026,-0.901 -0.006,-0.289 -0.008,-0.555 -0.008,-0.797 0,-0.624 0.057,-1.149 0.173,-1.576 0.116,-0.428 0.285,-0.778 0.505,-1.049 0.22,-0.272 0.49,-0.468 0.809,-0.59 0.318,-0.12 0.675,-0.182 1.069,-0.182 0.243,0 0.546,0.059 0.912,0.174 0.363,0.116 0.762,0.274 1.196,0.476 0.433,0.202 0.891,0.442 1.37,0.72 0.479,0.277 0.954,0.58 1.422,0.909 0.468,0.33 0.916,0.677 1.344,1.04 0.427,0.363 0.816,0.736 1.163,1.117 z m -27.879,1.771 c 0,-0.299 0.019,-0.587 0.06,-0.867 0.041,-0.28 0.113,-0.53 0.217,-0.751 0.105,-0.22 0.243,-0.399 0.417,-0.535 0.173,-0.138 0.393,-0.206 0.659,-0.206 0.428,0 0.816,0.185 1.163,0.557 0.347,0.372 0.648,0.821 0.903,1.344 0.254,0.523 0.459,1.065 0.615,1.622 0.157,0.559 0.259,1.024 0.305,1.396 l 1.292,5.632 c -0.473,0 -0.935,-0.117 -1.387,-0.352 -0.45,-0.235 -0.874,-0.552 -1.273,-0.952 -0.399,-0.402 -0.765,-0.86 -1.1,-1.374 -0.335,-0.516 -0.664,-1.152 -0.988,-1.907 -0.324,-0.756 -0.551,-1.42 -0.684,-1.993 -0.133,-0.572 -0.199,-1.11 -0.199,-1.614 M -18.5,51.349 c -0.265,-0.374 -0.62,-0.813 -1.064,-1.315 -0.446,-0.503 -0.946,-0.98 -1.5,-1.436 -0.554,-0.456 -1.149,-0.842 -1.785,-1.158 -0.635,-0.314 -1.271,-0.472 -1.905,-0.472 -0.767,0 -1.408,0.243 -1.92,0.728 -0.512,0.487 -0.955,1.193 -1.327,2.119 -0.28,-0.32 -0.623,-0.646 -1.031,-0.978 -0.407,-0.331 -0.854,-0.631 -1.336,-0.899 -0.483,-0.269 -0.987,-0.49 -1.511,-0.661 -0.524,-0.172 -1.049,-0.257 -1.572,-0.257 -0.555,0 -1.095,0.113 -1.62,0.341 -0.526,0.227 -0.99,0.553 -1.395,0.979 -0.405,0.425 -0.727,0.943 -0.97,1.556 -0.243,0.611 -0.364,1.301 -0.364,2.071 0,0.863 0.121,1.749 0.366,2.659 0.244,0.909 0.621,1.893 1.133,2.952 0.511,1.06 1.06,1.974 1.647,2.745 0.587,0.772 1.229,1.445 1.927,2.021 0.697,0.575 1.432,1.032 2.204,1.372 0.773,0.34 1.56,0.51 2.361,0.51 0.269,0 0.477,-0.053 0.628,-0.158 0.151,-0.105 0.276,-0.224 0.375,-0.359 0.099,-0.134 0.194,-0.266 0.288,-0.394 0.093,-0.129 0.209,-0.221 0.349,-0.28 0.138,-0.058 0.281,-0.096 0.426,-0.113 0.145,-0.019 0.294,-0.026 0.445,-0.026 0.127,0 0.258,0.002 0.392,0.007 0.134,0.006 0.264,0.009 0.392,0.009 0.175,0 0.337,-0.016 0.489,-0.052 0.151,-0.035 0.284,-0.111 0.4,-0.227 0.116,-0.117 0.206,-0.28 0.268,-0.491 0.064,-0.209 0.096,-0.496 0.096,-0.858 0,-0.553 -0.057,-1.165 -0.173,-1.838 -0.116,-0.673 -0.248,-1.362 -0.397,-2.069 -0.149,-0.706 -0.319,-1.511 -0.51,-2.415 -0.191,-0.904 -0.286,-1.665 -0.286,-2.285 0,-0.53 0.049,-0.944 0.148,-1.242 0.098,-0.298 0.309,-0.448 0.632,-0.448 0.243,0 0.497,0.061 0.763,0.181 0.265,0.12 0.534,0.277 0.805,0.473 0.271,0.194 0.542,0.415 0.815,0.661 0.271,0.246 0.528,0.501 0.77,0.764 0.567,0.619 1.138,1.317 1.716,2.095 z m -46.521,22.398 c 0,-0.398 -0.095,-0.988 -0.286,-1.769 -0.19,-0.782 -0.43,-1.682 -0.719,-2.704 -0.289,-1.021 -0.6,-2.13 -0.935,-3.328 -0.336,-1.197 -0.648,-2.412 -0.936,-3.645 -0.289,-1.233 -0.529,-2.446 -0.719,-3.636 -0.191,-1.191 -0.286,-2.299 -0.286,-3.319 0,-0.834 0.054,-1.612 0.164,-2.334 0.11,-0.722 0.281,-1.35 0.511,-1.884 0.232,-0.534 0.52,-0.954 0.867,-1.259 0.346,-0.305 0.756,-0.458 1.23,-0.458 0.474,0 0.933,0.141 1.378,0.423 0.445,0.281 0.876,0.669 1.292,1.163 0.417,0.493 0.815,1.081 1.196,1.762 0.382,0.681 0.749,1.419 1.101,2.212 0.353,0.793 0.686,1.627 0.997,2.503 0.313,0.875 0.607,1.758 0.885,2.651 0.971,3.148 1.832,6.727 2.583,10.732 0.14,0.647 0.305,1.187 0.498,1.621 0.192,0.435 0.422,0.782 0.69,1.041 0.267,0.258 0.579,0.44 0.934,0.545 0.355,0.106 0.765,0.16 1.231,0.16 0.44,0 0.803,-0.041 1.085,-0.121 0.283,-0.082 0.509,-0.192 0.677,-0.33 0.166,-0.138 0.285,-0.306 0.355,-0.502 0.068,-0.198 0.103,-0.417 0.103,-0.659 0,-0.081 -0.046,-0.419 -0.138,-1.014 -0.093,-0.595 -0.211,-1.358 -0.355,-2.287 -0.145,-0.93 -0.301,-1.984 -0.468,-3.162 -0.168,-1.178 -0.324,-2.388 -0.468,-3.629 -0.145,-1.243 -0.263,-2.47 -0.355,-3.683 -0.093,-1.213 -0.139,-2.328 -0.139,-3.344 0,-1.04 0.038,-1.978 0.113,-2.816 0.074,-0.837 0.2,-1.55 0.379,-2.14 0.178,-0.589 0.411,-1.039 0.699,-1.352 0.287,-0.311 0.643,-0.467 1.068,-0.467 0.737,0 1.407,0.289 2.011,0.866 0.603,0.577 1.156,1.349 1.656,2.313 0.5,0.965 0.948,2.082 1.345,3.354 0.397,1.27 0.788,2.927 1.174,4.972 0.385,2.045 0.578,3.065 0.578,3.064 0,-10e-4 0.134,1.112 0.403,3.34 0.269,2.227 0.454,3.754 0.554,4.581 0.1,0.827 0.178,1.474 0.235,1.941 0.038,0.512 0.154,0.922 0.349,1.232 0.194,0.31 0.442,0.551 0.743,0.722 0.302,0.169 0.644,0.282 1.027,0.337 0.383,0.055 0.776,0.082 1.177,0.082 0.314,0 0.6,-0.029 0.857,-0.087 0.258,-0.058 0.481,-0.159 0.669,-0.301 0.188,-0.143 0.333,-0.333 0.433,-0.571 0.101,-0.239 0.151,-0.543 0.151,-0.914 0,-1.027 -0.097,-2.156 -0.293,-3.387 -0.196,-1.233 -0.444,-2.47 -0.745,-3.711 -0.299,-1.242 -0.486,-2.462 -0.558,-3.658 -0.072,-1.197 -0.313,-2.351 -0.724,-3.463 -0.41,-1.113 -0.69,-2.024 -0.838,-2.735 -0.149,-0.712 -0.223,-1.179 -0.223,-1.406 0,-0.554 0.063,-1.025 0.191,-1.415 0.126,-0.39 0.297,-0.713 0.511,-0.968 0.213,-0.255 0.467,-0.439 0.762,-0.553 0.295,-0.113 0.609,-0.169 0.944,-0.169 0.335,0 0.678,0.078 1.032,0.233 0.351,0.156 0.689,0.373 1.013,0.65 0.323,0.277 0.621,0.609 0.893,0.997 0.27,0.386 0.499,0.816 0.684,1.289 l 0.294,-3.556 c -0.855,-0.911 -1.735,-1.629 -2.642,-2.153 -0.907,-0.525 -1.759,-0.788 -2.556,-0.788 -0.381,0 -0.739,0.057 -1.073,0.169 -0.335,0.113 -0.632,0.286 -0.89,0.523 -0.259,0.235 -0.475,0.54 -0.648,0.915 -0.173,0.375 -0.293,0.819 -0.362,1.334 -0.576,-0.983 -1.195,-1.868 -1.856,-2.656 -0.662,-0.788 -1.363,-1.458 -2.106,-2.014 -0.742,-0.555 -1.519,-0.982 -2.33,-1.284 -0.812,-0.301 -1.649,-0.452 -2.512,-0.452 -1.093,0 -2.023,0.289 -2.788,0.867 -0.766,0.577 -1.387,1.362 -1.864,2.356 -0.478,0.993 -0.827,2.16 -1.045,3.5 -0.218,1.34 -0.328,2.766 -0.328,4.28 0,0.554 0.029,1.074 0.087,1.559 0.057,0.486 0.104,0.918 0.139,1.3 -0.417,-2.634 -0.939,-4.838 -1.569,-6.61 -0.629,-1.774 -1.368,-3.198 -2.217,-4.272 -0.849,-1.073 -1.82,-1.84 -2.912,-2.296 -1.091,-0.456 -2.301,-0.684 -3.629,-0.684 -0.763,0 -1.491,0.252 -2.183,0.754 -0.693,0.502 -1.303,1.25 -1.828,2.244 -0.526,0.993 -0.948,2.237 -1.266,3.733 -0.317,1.496 -0.476,3.243 -0.476,5.242 0,1.225 0.07,2.481 0.208,3.769 0.139,1.288 0.338,2.578 0.598,3.872 0.26,1.294 0.58,2.576 0.961,3.847 0.381,1.27 0.815,2.506 1.3,3.708 0.289,0.669 0.577,1.193 0.866,1.568 0.289,0.376 0.584,0.652 0.884,0.832 0.3,0.179 0.604,0.286 0.91,0.32 0.305,0.035 0.615,0.052 0.926,0.052 0.254,0 0.485,-0.018 0.694,-0.052 0.208,-0.036 0.384,-0.109 0.528,-0.22 0.145,-0.112 0.254,-0.271 0.33,-0.477 0.074,-0.205 0.112,-0.484 0.112,-0.836 m 69.944,87.617 c -0.374,0 -0.697,-0.115 -0.967,-0.345 -0.269,-0.231 -0.524,-0.559 -0.765,-0.985 -0.24,-0.427 -0.48,-0.945 -0.72,-1.556 -0.241,-0.61 -0.513,-1.289 -0.818,-2.038 -0.164,-0.672 -0.334,-1.365 -0.507,-2.078 -0.174,-0.713 -0.314,-1.417 -0.42,-2.115 -0.107,-0.698 -0.21,-1.384 -0.313,-2.06 -0.101,-0.674 -0.197,-1.307 -0.287,-1.897 -0.173,-1.455 -0.311,-2.887 -0.415,-4.295 0.253,0.773 0.532,1.614 0.836,2.522 0.303,0.908 0.603,1.805 0.901,2.69 0.298,0.885 0.578,1.717 0.841,2.497 0.262,0.78 0.482,1.442 0.657,1.984 0.081,0.254 0.199,0.572 0.35,0.953 0.151,0.381 0.315,0.791 0.49,1.23 0.176,0.439 0.351,0.896 0.526,1.369 0.174,0.474 0.336,0.93 0.481,1.369 0.147,0.439 0.266,0.849 0.359,1.23 0.093,0.382 0.14,0.705 0.14,0.971 0,0.369 -0.123,0.554 -0.369,0.554 M 1.532,141.772 c 0.416,0.541 0.872,1.135 1.369,1.782 0.497,0.646 0.985,1.263 1.464,1.851 0.479,0.589 0.962,1.199 1.447,1.834 0.485,0.636 0.843,1.035 1.075,1.2 0.357,0.259 0.797,0.479 1.316,0.662 0.52,0.182 1.097,0.273 1.734,0.273 0.322,0 0.631,-0.077 0.925,-0.229 0.295,-0.153 0.552,-0.371 0.772,-0.653 0.22,-0.282 0.393,-0.624 0.519,-1.023 0.128,-0.4 0.192,-0.846 0.192,-1.341 0,-0.482 -0.159,-1.055 -0.478,-1.719 -0.317,-0.664 -0.649,-1.244 -0.995,-1.737 -0.348,-0.494 -0.723,-0.988 -1.127,-1.482 -0.404,-0.494 -0.779,-0.99 -1.126,-1.49 -0.346,-0.5 -0.636,-0.996 -0.866,-1.49 -0.231,-0.493 -0.347,-0.987 -0.347,-1.482 0,-0.423 0.102,-0.726 0.304,-0.909 0.201,-0.181 0.517,-0.272 0.943,-0.272 0.232,0 0.483,0.079 0.754,0.238 0.272,0.158 0.552,0.367 0.841,0.626 0.289,0.258 0.58,0.546 0.875,0.864 0.294,0.318 0.577,0.641 0.849,0.97 0.271,0.329 0.529,0.644 0.771,0.944 0.243,0.299 0.462,0.555 0.658,0.767 l 1.04,-4.321 c -0.358,-0.486 -0.812,-0.937 -1.36,-1.352 -0.549,-0.415 -1.143,-0.776 -1.785,-1.084 -0.641,-0.307 -1.306,-0.548 -1.993,-0.721 -0.687,-0.172 -1.348,-0.258 -1.984,-0.258 -0.831,0 -1.509,0.094 -2.036,0.283 -0.525,0.187 -0.938,0.438 -1.238,0.751 -0.301,0.311 -0.506,0.664 -0.615,1.057 -0.111,0.393 -0.165,0.799 -0.165,1.219 0,0.271 0.032,0.603 0.095,0.996 0.064,0.395 0.185,0.838 0.365,1.332 0.178,0.494 0.429,1.038 0.754,1.631 0.322,0.594 0.744,1.232 1.264,1.913 0.208,0.212 0.399,0.403 0.572,0.573 0.173,0.171 0.323,0.323 0.45,0.459 0.127,0.135 0.225,0.261 0.295,0.378 0.069,0.118 0.103,0.242 0.103,0.372 0,0.246 -0.043,0.446 -0.13,0.599 -0.086,0.152 -0.211,0.229 -0.372,0.229 -0.196,0 -0.45,-0.129 -0.762,-0.387 -0.324,-0.272 -0.665,-0.724 -1.022,-1.359 l -5.095,-8.899 c -0.276,-0.421 -0.554,-0.717 -0.831,-0.889 -0.278,-0.172 -0.601,-0.258 -0.971,-0.258 -0.497,0 -0.889,0.1 -1.178,0.301 -0.288,0.202 -0.508,0.473 -0.658,0.816 -0.151,0.342 -0.246,0.739 -0.287,1.19 -0.041,0.451 -0.06,0.932 -0.06,1.443 0,0.669 0.022,1.555 0.069,2.659 0.046,1.103 0.116,2.316 0.208,3.636 0.093,1.321 0.217,2.704 0.373,4.148 0.156,1.444 0.343,2.847 0.563,4.208 0.086,0.468 0.19,1.041 0.316,1.72 0.124,0.679 0.293,1.401 0.507,2.168 0.213,0.767 0.438,1.573 0.672,2.418 0.235,0.845 0.523,1.662 0.865,2.451 0.341,0.79 0.725,1.541 1.153,2.256 0.427,0.714 0.908,1.339 1.439,1.874 0.532,0.536 1.116,0.959 1.752,1.271 0.636,0.31 1.329,0.466 2.081,0.466 0.589,0 1.074,-0.095 1.455,-0.284 0.381,-0.19 0.685,-0.455 0.91,-0.794 0.225,-0.339 0.384,-0.745 0.476,-1.216 0.094,-0.472 0.139,-0.984 0.139,-1.535 0,-0.989 -0.125,-2.053 -0.373,-3.192 -0.248,-1.14 -0.562,-2.283 -0.944,-3.428 -0.381,-1.145 -0.797,-2.259 -1.247,-3.34 -0.451,-1.081 -0.884,-2.058 -1.3,-2.93 -0.416,-0.873 -0.783,-1.608 -1.1,-2.207 -0.318,-0.599 -0.529,-0.991 -0.632,-1.177 l -2.063,-3.105 z m -22.368,-5.93 c 0,0.761 0.046,1.642 0.138,2.641 0.093,0.999 0.208,2.097 0.347,3.293 0.138,1.195 0.294,2.272 0.467,3.231 0.173,0.959 0.341,1.779 0.503,2.461 0.127,0.531 0.372,0.976 0.736,1.334 0.365,0.358 0.858,0.537 1.482,0.537 0.624,0 1.057,-0.191 1.3,-0.571 0.242,-0.382 0.363,-0.89 0.363,-1.525 0,-0.174 -0.018,-0.407 -0.052,-0.702 -0.035,-0.295 -0.078,-0.618 -0.13,-0.97 -0.051,-0.353 -0.107,-0.717 -0.164,-1.092 -0.058,-0.376 -0.113,-0.803 -0.166,-1.282 -0.05,-0.48 -0.094,-0.838 -0.129,-1.075 -0.035,-0.237 -0.052,-0.395 -0.052,-0.476 h 0.347 c 0.069,0.127 0.179,0.332 0.328,0.615 0.151,0.283 0.324,0.69 0.521,1.221 0.196,0.532 0.407,1.002 0.632,1.413 0.225,0.41 0.436,0.802 0.633,1.178 0.196,0.375 0.375,0.707 0.537,0.996 0.162,0.289 0.282,0.503 0.364,0.642 0.369,0.624 0.791,1.05 1.265,1.282 0.473,0.231 0.999,0.346 1.577,0.346 0.577,0 1.036,-0.242 1.377,-0.728 0.341,-0.485 0.51,-1.155 0.51,-2.009 0,-0.128 -0.025,-0.341 -0.077,-0.641 -0.052,-0.301 -0.119,-0.659 -0.199,-1.075 -0.082,-0.416 -0.171,-0.953 -0.268,-1.611 -0.1,-0.659 -0.189,-1.248 -0.269,-1.768 -0.082,-0.52 -0.148,-1.033 -0.199,-1.542 -0.053,-0.508 -0.079,-0.976 -0.079,-1.404 0,-0.715 0.09,-1.305 0.268,-1.766 0.179,-0.463 0.46,-0.693 0.841,-0.693 0.139,0 0.335,0.051 0.59,0.155 0.381,0.139 0.623,0.26 0.726,0.364 0.509,0.393 0.775,0.583 0.798,0.571 0.035,-0.01 0.422,0.22 1.161,0.694 0.924,0.59 2.027,1.31 3.309,2.166 l -0.017,-3.881 -0.866,-0.659 c -0.069,-0.058 -0.613,-0.358 -1.629,-0.901 -1.467,-0.786 -2.385,-1.259 -2.756,-1.421 -0.9,-0.404 -1.46,-0.635 -1.679,-0.693 -0.578,-0.185 -1.185,-0.277 -1.821,-0.277 -0.634,0 -1.168,0.46 -1.602,1.378 -0.433,0.918 -0.65,2.26 -0.65,4.028 0,0.693 0.046,1.441 0.139,2.244 0.092,0.803 0.208,1.666 0.347,2.591 h -0.277 l -4.54,-9.011 c -0.243,-0.484 -0.502,-0.808 -0.78,-0.971 -0.289,-0.172 -0.624,-0.259 -1.005,-0.259 -0.474,0 -0.855,0.101 -1.144,0.303 -0.288,0.203 -0.511,0.473 -0.667,0.814 -0.155,0.342 -0.259,0.728 -0.312,1.162 -0.051,0.433 -0.077,0.88 -0.077,1.343 m -6.533,18.252 c 0,0.268 0.058,0.571 0.174,0.909 0.115,0.339 0.303,0.657 0.563,0.954 0.26,0.297 0.607,0.547 1.039,0.751 0.434,0.205 0.974,0.307 1.62,0.307 0.405,0 0.786,-0.047 1.144,-0.14 0.358,-0.094 0.67,-0.236 0.936,-0.429 0.265,-0.192 0.477,-0.446 0.632,-0.761 0.157,-0.314 0.234,-0.687 0.234,-1.119 0,-0.396 -0.064,-0.781 -0.19,-1.154 -0.128,-0.373 -0.33,-0.705 -0.607,-0.997 -0.278,-0.291 -0.627,-0.527 -1.048,-0.708 -0.422,-0.181 -0.927,-0.272 -1.516,-0.272 -1.017,0 -1.767,0.242 -2.253,0.727 -0.484,0.484 -0.728,1.128 -0.728,1.932 m 7.746,-18.183 c -0.416,-0.382 -0.934,-0.789 -1.551,-1.222 -0.618,-0.433 -1.285,-0.832 -2.001,-1.196 -0.717,-0.363 -1.447,-0.667 -2.193,-0.909 -0.744,-0.242 -1.452,-0.364 -2.122,-0.364 -0.6,0 -1.106,0.084 -1.516,0.252 -0.41,0.167 -0.742,0.401 -0.996,0.701 -0.255,0.301 -0.436,0.667 -0.546,1.1 -0.11,0.434 -0.164,0.91 -0.164,1.43 0,0.728 0.08,1.576 0.242,2.547 0.333,2.007 0.547,3.134 0.642,3.382 0.158,0.493 0.472,1.587 0.945,3.279 0.438,1.38 0.709,2.278 0.812,2.694 0.057,0.292 0.215,0.555 0.477,0.789 0.238,0.209 0.508,0.382 0.808,0.516 0.301,0.135 0.613,0.234 0.936,0.298 0.324,0.064 0.616,0.097 0.877,0.097 0.477,0 0.801,-0.09 0.97,-0.269 0.171,-0.179 0.256,-0.419 0.256,-0.719 0,-0.255 -0.06,-0.613 -0.178,-1.078 -0.118,-0.464 -0.254,-0.992 -0.406,-1.586 -0.151,-0.593 -0.376,-1.357 -0.674,-2.29 -0.298,-0.932 -0.501,-1.728 -0.61,-2.386 -0.109,-0.659 -0.247,-1.313 -0.413,-1.961 -0.166,-0.651 -0.249,-1.241 -0.249,-1.772 0,-0.519 0.058,-0.933 0.173,-1.238 0.115,-0.306 0.353,-0.459 0.711,-0.459 0.416,0 0.877,0.144 1.386,0.432 0.508,0.29 1.022,0.639 1.542,1.049 0.52,0.411 1.029,0.835 1.525,1.274 0.497,0.439 0.935,0.814 1.317,1.126 z m -25.471,-0.069 c 0,0.508 0.028,1.099 0.086,1.775 0.058,0.676 0.136,1.389 0.234,2.14 0.098,0.751 0.214,1.516 0.347,2.296 0.133,0.78 0.303,1.612 0.51,2.495 0.209,0.884 0.387,1.62 0.538,2.209 0.15,0.59 0.3,1.075 0.45,1.456 0.093,0.254 0.185,0.456 0.278,0.606 0.091,0.15 0.199,0.269 0.32,0.355 0.121,0.087 0.271,0.145 0.451,0.174 0.179,0.028 0.401,0.043 0.667,0.043 0.3,0 0.534,-0.015 0.701,-0.043 0.168,-0.029 0.292,-0.098 0.373,-0.208 0.081,-0.11 0.13,-0.269 0.147,-0.477 0.017,-0.207 0.026,-0.491 0.026,-0.849 0,-0.427 -0.029,-1.034 -0.087,-1.819 -0.057,-0.786 -0.074,-1.473 -0.051,-2.062 h 0.19 c 0.231,0.462 0.52,1.068 0.866,1.819 0.347,0.751 0.711,1.375 1.092,1.872 0.382,0.497 0.815,0.915 1.3,1.256 0.485,0.34 1.045,0.511 1.68,0.511 0.22,0 0.433,-0.038 0.641,-0.113 0.209,-0.075 0.39,-0.181 0.546,-0.32 0.156,-0.139 0.281,-0.309 0.372,-0.511 0.093,-0.202 0.139,-0.431 0.139,-0.685 0,-0.196 -0.028,-0.47 -0.086,-0.823 -0.058,-0.352 -0.151,-0.811 -0.277,-1.377 -0.127,-0.566 -0.22,-1.031 -0.278,-1.395 -0.058,-0.364 -0.087,-0.667 -0.087,-0.91 0,-0.415 0.041,-0.762 0.122,-1.039 0.08,-0.278 0.188,-0.5 0.321,-0.667 0.132,-0.168 0.282,-0.286 0.45,-0.356 0.167,-0.069 0.343,-0.103 0.528,-0.103 0.521,0 1.057,0.115 1.611,0.346 0.555,0.231 1.063,0.491 1.525,0.78 0.544,0.335 1.075,0.716 1.595,1.143 l -0.26,-4.054 c -0.301,-0.197 -0.641,-0.416 -1.022,-0.659 -0.382,-0.243 -0.789,-0.47 -1.222,-0.684 -0.434,-0.214 -0.884,-0.393 -1.352,-0.537 -0.468,-0.145 -0.944,-0.217 -1.429,-0.217 -0.867,0 -1.566,0.176 -2.096,0.529 -0.533,0.352 -0.953,0.815 -1.266,1.386 -0.312,0.571 -0.542,1.213 -0.692,1.923 -0.151,0.711 -0.272,1.43 -0.364,2.157 h -0.278 l -3.101,-8.646 c -0.162,-0.451 -0.315,-0.824 -0.459,-1.118 -0.145,-0.294 -0.292,-0.534 -0.442,-0.718 -0.15,-0.185 -0.312,-0.315 -0.485,-0.391 -0.174,-0.074 -0.364,-0.112 -0.573,-0.112 -0.473,0 -0.854,0.101 -1.143,0.303 -0.288,0.203 -0.511,0.473 -0.667,0.814 -0.155,0.342 -0.26,0.728 -0.312,1.162 -0.052,0.433 -0.077,0.88 -0.077,1.343 M -62.141,162.3 c 1.89,0 3.57,-0.155 5.042,-0.467 1.471,-0.311 2.761,-0.742 3.868,-1.294 1.107,-0.552 2.042,-1.211 2.807,-1.977 0.764,-0.765 1.385,-1.6 1.86,-2.502 0.475,-0.904 0.82,-1.862 1.034,-2.875 0.215,-1.012 0.322,-2.048 0.322,-3.106 0,-1.459 -0.163,-3.04 -0.487,-4.742 -0.325,-1.702 -0.794,-3.254 -1.408,-4.655 -0.614,-1.401 -1.37,-2.715 -2.269,-3.943 -0.898,-1.227 -1.926,-2.298 -3.084,-3.213 -1.159,-0.915 -2.434,-1.634 -3.824,-2.162 -1.391,-0.527 -2.892,-0.791 -4.503,-0.791 -0.537,0 -1.086,0.042 -1.646,0.124 -0.56,0.083 -1.104,0.196 -1.63,0.337 -0.526,0.142 -1.024,0.301 -1.493,0.478 -0.469,0.177 -0.881,0.359 -1.235,0.548 -0.149,0.047 -0.266,0.103 -0.351,0.168 -0.086,0.065 -0.152,0.142 -0.198,0.23 -0.046,0.089 -0.075,0.198 -0.086,0.328 -0.011,0.13 -0.016,0.295 -0.016,0.495 0,1.916 0.048,3.878 0.144,5.887 0.097,2.008 0.294,4.071 0.591,6.189 0.297,2.118 0.726,3.988 1.287,5.609 0.56,1.622 1.303,3.12 2.23,4.494 0.229,0.334 0.966,0.501 2.212,0.501 0.984,0 1.689,-0.357 2.118,-1.072 -0.533,-0.716 -0.978,-1.512 -1.336,-2.389 -0.359,-0.876 -0.66,-1.738 -0.903,-2.586 -0.243,-0.848 -0.445,-1.773 -0.607,-2.777 -0.313,-1.938 -0.462,-2.918 -0.451,-2.941 0.035,-0.023 -0.098,-1.131 -0.399,-3.322 -0.116,-0.762 -0.206,-1.426 -0.269,-1.99 -0.064,-0.566 -0.11,-1.062 -0.139,-1.488 -0.029,-0.427 -0.043,-0.842 -0.043,-1.246 0,-0.427 0.014,-0.785 0.043,-1.073 0.029,-0.288 0.099,-0.518 0.208,-0.691 0.11,-0.174 0.278,-0.298 0.504,-0.372 0.225,-0.075 0.528,-0.113 0.91,-0.113 1.157,0 2.256,0.227 3.296,0.683 1.042,0.455 2.002,1.067 2.88,1.834 0.879,0.767 1.669,1.658 2.369,2.674 0.699,1.014 1.295,2.188 1.786,3.52 0.492,1.333 0.871,2.584 1.137,3.755 0.266,1.171 0.399,2.298 0.399,3.383 0,1.338 -0.22,2.534 -0.659,3.59 -0.44,1.056 -1.055,1.949 -1.847,2.681 -0.793,0.733 -1.744,1.293 -2.855,1.679 -1.11,0.386 -2.331,0.58 -3.661,0.58 -0.971,0 -1.933,-0.058 -2.886,-0.175 -0.953,-0.116 -1.837,-0.295 -2.652,-0.539 -0.814,-0.244 -1.529,-0.554 -2.148,-0.932 -0.617,-0.377 -1.083,-0.827 -1.395,-1.349 -0.843,-1.312 -1.536,-2.324 -2.079,-3.038 -0.542,-0.714 -0.999,-1.071 -1.368,-1.071 -0.509,0 -0.763,0.583 -0.763,1.75 0,1.132 0.147,2.149 0.442,3.049 0.294,0.901 0.704,1.701 1.23,2.4 0.526,0.699 1.15,1.293 1.871,1.785 0.721,0.49 1.513,0.895 2.374,1.213 0.86,0.317 1.776,0.551 2.746,0.702 0.971,0.15 1.964,0.225 2.98,0.225"
         style="fill:#1c75bc;fill-opacity:1;fill-rule:nonzero;stroke:none"
         id="path45635" />
    </g>
  </g>
</svg>
